<svg xmlns="http://www.w3.org/2000/svg" version="1.1" xmlns:xlink="http://www.w3.org/1999/xlink" xmlns:svgjs="http://svgjs.dev/svgjs" width="1500" height="1687" viewBox="0 0 1500 1687"><g transform="matrix(1,0,0,1,0.0005507812500127329,0)"><svg viewBox="0 0 320 360" data-background-color="#ffffff" preserveAspectRatio="xMidYMid meet" height="1687" width="1500" xmlns="http://www.w3.org/2000/svg" xmlns:xlink="http://www.w3.org/1999/xlink"><g id="tight-bounds" transform="matrix(1,0,0,1,-0.00007049999999253487,0)"><svg viewBox="0 0 320 360" height="360" width="320"><rect width="320.000188" height="360" fill="url(#7a255f6b-d0e8-4d28-ac62-1c4cd290b47d)" mask="url(#d6f9c0e1-5dca-47b1-b312-3cc0b982303b)" data-fill-palette-color="tertiary"></rect><g><svg></svg></g><g><svg viewBox="0 0 320 360" height="360" width="320"><g><path transform="translate(-74.99272,-51.79039) scale(4.65793,4.65793)" d="M20.6 59.9l0.8 1-0.4-1.3c-0.1-0.6-0.8 0.1-0.4 0.3M21.5 59.3c0.3 0.5 0.6 1 0.6 1.5 0 0.7 0.6 1 1.1 1.2-0.7-0.8-1.1-3-1.7-2.7M59.9 16.9c1.7 0 3.3-0.2 5.1 0.2 4.4 1.1 8.1 3.3 10.6 6.4l7 11.2c0.3 2.8 0.9 5.9 0.8 9.3 0.7 0 0.6-1 1.4-1.2-0.8 2-1.2 4.5-1.4 7.4-0.5-1.6 0-4 0.1-5.3-0.7 1.1-1.1 0.3-1.1-0.2 0.1-0.8-0.3-0.7-0.6-1-1.1-1-1.8-2.1-2.6-3.8 0.5-1.3 0.6-3.2-1-4.2-0.5-0.3-1.1-0.8-1.4-1.6-0.4-1.1-1.1-2.4-0.9-4.1 0.1-0.5-1.5 1.1-2.4 0.4-3.9-2.7-7.8-5.8-12.5-8.4-2.5 0-4.3-0.9-5.2-2-0.8-1-0.2-2.3 1-2.4 0.7 0 1.5-0.2 2.1 0.2 0.1-0.4 0.5-0.9 1-0.9M50 14.6l0.2 0.1c1 0.2 1.5 1.6 2.6 1.1 0 0.7 0.1 1.4-0.1 1.9-0.3 0.8-1.2 0.8-1.9 0.8-6.7-0.4-10.6 2.4-14.7 4.8-1.1 0.7-2.3 1.2-3.2 2.1-4.3 4-9 7.7-10.1 15.1l-0.9 8.2c-0.1 0.9-1.1 1.8-0.9 2.9l0.7 4.9c-0.7-0.7-1.1 0.2-0.9 0.6 0.1 0.3 0.5 1.3 1.1 0.4 0.8 1.5 1.6 4.4 2.7 5.7 3.4 4 7.8 7.6 11.4 11.2 0.9-0.2 1.6-0.2 1.8-0.8 0.3 0.6-0.3 1.2-0.8 1.3 1.6 1 3.4 1.9 5.8 2.1 3.1 0.2 6 0.7 8.7 1.4 1.4-0.4 2.8-0.6 4.3-0.7 0.5 0 0.8-0.8 1.4-1l0.1-1c0.6 0.9 0.5-0.3 0.1-0.9 0.7 0.6 0.9 1.1 1.2 1.5 0-0.3 0.8-1.4 0.8-0.1l0.2-1.3c0.3-0.2 0.4 1.1 0.7 0.2 0.3-0.9 0.9-0.2 1.5-0.5-0.2 0.4-0.1 1.2 0.6 0.7l0.8-0.7c0.5 1.2 1.3 0.7 1.7 0.5 4.4-2.8 8.8-6.1 13-9.4l-0.1 1.3 0.5-1.6c0.5 0.5 0.9 0.1 1.1-0.2 0.6-1 1.4-2 2.7-2.9-1.6 4.3-3.5 7.7-5.9 10.5l-1 1.2c0 0.7-0.2 1.6-1 1.7-0.4 0.1-1.2-0.2-1.8 0.4-0.3 0.4 0.7 1.2-0.1 0.6-0.7-0.5-1.4 0-2.2 0.2-0.6 0.2 0.4 0.8 0.6 1.2 0.2 0.4 0.4 0.8 0.3 1.3l-1.1-1.2c-1.3 0.7-2.1 2-3.2 3-0.5 0.4-0.3 1.1-0.3 1.7-0.7 0-1.5-0.2-1.9 0.2-0.3 0.4-0.2 1-0.2 1.6-1-0.1-1.1-1.6-2-1.3-0.9 0.2-1.9 0.3-2.7 0.8 0.6 1.2-1 0.5-0.8 0.7-1.5-0.9-2.8-1.6-4.4-1-3.4-1.1-7.6-0.6-10.7-0.2 0-0.5 0.1-1-0.1-1.1-0.2 0.5-0.8 0.3-0.7 0.3-1.9-1.3-3.8-2.1-5.8-3.2-1.8 0.2-3.5-0.7-4-1.2-1.4-1.3-3-0.6-4.3-0.9-2.8-0.7-3.8-3.6-4.1-5.6-0.2-1-1-1.4-1.3-1.3-1.3-4.2-3.3-8-4.9-11.9-0.4-1-0.3-2-0.3-3.1 0.5 0.2 1 0.1 0.9-0.6-0.5-3.3-1.7-5.8-3-8.2 0.7-3.4 0.8-7.4 2.4-10.4 1.4-2.7 4-4.1 5.8-6.4 0.6-0.8 0.6-1.9 1.2-2.6 2-2 4-4.1 6.2-5.9 1-0.8 2.2 0 3.7-0.3 0.5-1.8 2.5-3.4 4.4-2.9 0.8 0.2 2.4-1.9 2.9-2.1 0.8-0.3 0.4 0.8 0.4 1.5 1.9-1.5 4.5-2.3 6.9-3.2" fill="url(#7a255f6b-d0e8-4d28-ac62-1c4cd290b47d)" fill-rule="nonzero" stroke="none" stroke-width="1" stroke-linecap="butt" stroke-linejoin="miter" stroke-miterlimit="10" stroke-dasharray="" stroke-dashoffset="0" font-family="none" font-weight="none" font-size="none" text-anchor="none" style="mix-blend-mode: normal" data-fill-palette-color="tertiary"></path></g><g transform="matrix(1,0,0,1,64,140.93352095585405)"><svg viewBox="0 0 192 78.13295808829191" height="78.13295808829191" width="192"><g><svg viewBox="0 0 192 78.13295808829191" height="78.13295808829191" width="192"><g><svg viewBox="0 0 192 78.13295808829191" height="78.13295808829191" width="192"><g transform="matrix(1,0,0,1,0,46.54411728616138)"><svg viewBox="0 0 192 31.58884080213053" height="31.58884080213053" width="192"><g id="textblocktransform"><svg viewBox="0 0 192 31.58884080213053" height="31.58884080213053" width="192" id="textblock"><g><svg viewBox="0 0 192 19.793449313457614" height="19.793449313457614" width="192"><g transform="matrix(1,0,0,1,0,0)"><svg width="192" viewBox="1.95 -34.08 438.08 45.161718691651004" height="19.793449313457614" data-palette-color="url(#9033fa86-92a7-42e3-841a-a5db1a108712)"></svg></g></svg></g><g transform="matrix(1,0,0,1,0,22.6817886110746)"><svg viewBox="0 0 192 8.907052191055927" height="8.907052191055927" width="192"><g transform="matrix(1,0,0,1,0,0)"><svg width="192" viewBox="1.9499999999999997 -33.5 732.9 34" height="8.907052191055927" data-palette-color="url(#2ac423a3-6c59-4f5d-bf6e-7172c8c2a699)"></svg></g></svg></g></svg></g></svg></g><g transform="matrix(1,0,0,1,63.44764471166698,0)"><svg viewBox="0 0 65.10471057666604 43.65577798854439" height="43.65577798854439" width="65.10471057666604"><g><svg xmlns="http://www.w3.org/2000/svg" xmlns:xlink="http://www.w3.org/1999/xlink" version="1.1" x="0" y="0" viewBox="2.2 15.4 85.9 57.6" enable-background="new 0 0 90 90" xml:space="preserve" height="43.65577798854439" width="65.10471057666604" class="icon-icon-0" data-fill-palette-color="accent" id="icon-0"></svg></g></svg></g><g></g></svg></g></svg></g></svg></g></svg></g><defs></defs><mask id="e44cc6f2-03f5-4f6f-ba82-8d2eed6d9bb1"><g id="SvgjsG1778"><svg viewBox="0 0 320 360" height="360" width="320"><g><svg></svg></g><g><svg viewBox="0 0 320 360" height="360" width="320"><g></g><g transform="matrix(1,0,0,1,64,140.93352095585405)"><svg viewBox="0 0 192 78.13295808829191" height="78.13295808829191" width="192"><g><svg viewBox="0 0 192 78.13295808829191" height="78.13295808829191" width="192"><g><svg viewBox="0 0 192 78.13295808829191" height="78.13295808829191" width="192"><g transform="matrix(1,0,0,1,0,46.54411728616138)"><svg viewBox="0 0 192 31.58884080213053" height="31.58884080213053" width="192"><g id="SvgjsG1777"><svg viewBox="0 0 192 31.58884080213053" height="31.58884080213053" width="192" id="SvgjsSvg1776"><g><svg viewBox="0 0 192 19.793449313457614" height="19.793449313457614" width="192"><g transform="matrix(1,0,0,1,0,0)"><svg width="192" viewBox="1.95 -34.08 438.08 45.161718691651004" height="19.793449313457614" data-palette-color="url(#9033fa86-92a7-42e3-841a-a5db1a108712)"><path d="M2.15-32.13L8.01-32.03Q9.47-32.03 11.47-32.13 13.48-32.23 14.89-32.23L14.89-32.23Q16.5-32.23 18.14-31.74 19.78-31.25 21.31-30.27 22.85-29.3 23.83-27.49 24.8-25.68 24.8-23.29L24.8-23.29Q24.8-21.88 24.19-20.24 23.58-18.6 22.41-17.07 21.24-15.53 19.26-14.53 17.29-13.53 14.84-13.53L14.84-13.53Q12.11-13.53 11.08-14.89L11.08-14.89Q10.79-15.23 10.94-16.02L10.94-16.02Q10.99-16.21 11.08-16.16L11.08-16.16Q12.55-15.63 14.36-15.63L14.36-15.63Q16.8-15.63 18.55-17.68 20.31-19.73 20.31-22.56L20.31-22.56Q20.31-26.03 18.8-28.05 17.29-30.08 14.11-30.08L14.11-30.08Q11.91-30.08 10.69-29.74L10.69-29.74Q10.45-29.69 10.35-29.37 10.25-29.05 10.18-27.88 10.11-26.71 10.11-24.37L10.11-24.37 10.11-6.93Q10.11-3.66 10.5-2.69L10.5-2.69Q10.74-2.05 12.23-1.66 13.72-1.27 14.36-1.27L14.36-1.27Q14.55-1.27 14.55-0.59L14.55-0.59Q14.55-0.15 14.45 0.15L14.45 0.15Q9.57-0.1 8.11-0.1L8.11-0.1 2.15 0.15Q2 0 2-0.73L2-0.73Q2-1.37 2.15-1.37L2.15-1.37Q2.83-1.37 4.05-1.66 5.27-1.95 5.52-2.39L5.52-2.39Q5.86-2.98 5.86-6.98L5.86-6.98 5.86-25.44Q5.86-28.32 5.52-29.64L5.52-29.64Q5.37-30.03 4.08-30.37 2.78-30.71 2.15-30.71L2.15-30.71Q1.95-30.71 1.95-31.3L1.95-31.3Q1.95-31.93 2.15-32.13L2.15-32.13ZM33.44-3.15Q34.27-2.44 35.59-2.44 36.91-2.44 38.13-3.25 39.35-4.05 39.35-4.88L39.35-4.88 39.35-9.91Q38.96-9.72 37.45-9.23 35.94-8.74 35.08-8.37 34.23-8.01 33.42-7.15 32.61-6.3 32.61-5.18L32.61-5.18Q32.61-3.86 33.44-3.15ZM38.03-21.29L38.03-21.29Q40.72-21.29 41.89-20 43.06-18.7 43.06-15.82L43.06-15.82 43.06-4.54Q43.06-3.52 43.6-2.83 44.14-2.15 45.07-2.15L45.07-2.15Q45.75-2.15 46.77-2.83L46.77-2.83Q46.97-2.83 46.97-2.44L46.97-2.44Q46.97-1.81 46.73-1.42L46.73-1.42Q44.72 0.29 43.31 0.29L43.31 0.29Q42.19 0.29 41.16-0.63 40.13-1.56 39.74-2.59L39.74-2.59Q39.69-2.59 39.38-2.27 39.06-1.95 38.52-1.54 37.99-1.12 37.28-0.68 36.57-0.24 35.62 0.05 34.67 0.34 33.69 0.34L33.69 0.34Q31.44 0.34 29.98-0.85 28.51-2.05 28.51-4.44L28.51-4.44Q28.51-5.52 29.05-6.47 29.59-7.42 30.32-8.03 31.05-8.64 32.32-9.28 33.59-9.91 34.49-10.23 35.4-10.55 36.86-11.04 38.33-11.52 38.91-11.77L38.91-11.77Q39.35-11.91 39.35-12.5L39.35-12.5 39.35-16.16Q39.35-17.72 38.38-18.58 37.4-19.43 36.03-19.43L36.03-19.43Q34.57-19.43 33.59-18.43 32.61-17.43 32.61-15.82L32.61-15.82Q32.61-14.11 30.61-14.11L30.61-14.11Q29.25-14.11 28.71-15.04L28.71-15.04Q28.71-17.14 31.78-19.21 34.86-21.29 38.03-21.29ZM68.5-16.65L68.5-16.65 68.5-6.88Q68.5-4.79 68.84-3.17L68.84-3.17Q68.94-2.83 69.38-2.64 69.82-2.44 70.31-2.39 70.8-2.34 71.28-2.34L71.28-2.34 71.72-2.29Q71.87-2.25 71.87-1.76L71.87-1.76Q71.87-1.61 71.75-1.29 71.63-0.98 71.48-0.98L71.48-0.98Q70.75-0.93 69.84-0.78 68.94-0.63 68.16-0.44 67.38-0.24 66.69-0.05 66.01 0.15 65.62 0.29L65.62 0.29 65.18 0.39Q64.79 0.39 64.79-0.39L64.79-0.39 64.79-2.88 64.69-3.13Q61.47 0.34 58.3 0.34L58.3 0.34Q56.49 0.34 55.2-0.56 53.9-1.46 53.29-2.95 52.68-4.44 52.44-5.83 52.19-7.23 52.19-8.74L52.19-8.74 52.19-14.89Q52.19-16.8 51.51-17.53L51.51-17.53Q51.02-18.12 50.31-18.33 49.6-18.55 49.14-18.55 48.68-18.55 48.68-18.65L48.68-18.65Q48.68-19.82 48.97-19.87L48.97-19.87Q54.15-20.65 55.71-21.14L55.71-21.14Q55.76-21.14 55.85-21.17 55.95-21.19 55.95-21.19L55.95-21.19Q56.15-21.19 56.2-20.78 56.25-20.36 56.2-20.17L56.2-20.17Q55.9-17.82 55.9-16.55L55.9-16.55 55.9-9.96Q55.9-6.2 57.03-4.42 58.15-2.64 60.69-2.64L60.69-2.64Q62.15-2.64 63.47-3.78 64.79-4.93 64.79-5.76L64.79-5.76 64.79-14.89Q64.79-16.8 64.11-17.53L64.11-17.53Q63.62-18.12 62.91-18.33 62.2-18.55 61.74-18.55 61.27-18.55 61.27-18.65L61.27-18.65Q61.27-19.82 61.57-19.87L61.57-19.87Q66.74-20.65 68.31-21.14L68.31-21.14Q68.35-21.14 68.45-21.17 68.55-21.19 68.55-21.19L68.55-21.19Q68.75-21.19 68.79-20.78 68.84-20.36 68.79-20.17L68.79-20.17Q68.5-17.82 68.5-16.65ZM76.75-5.66L76.75-5.66 76.75-26.81Q76.75-28.47 76.46-29.93L76.46-29.93Q76.21-30.71 73.97-30.71L73.97-30.71 73.53-30.71Q73.23-30.71 73.23-31.25L73.23-31.25Q73.23-32.03 73.53-32.03L73.53-32.03Q74.99-32.18 76.24-32.42 77.48-32.67 78.19-32.91 78.9-33.15 79.39-33.37 79.88-33.59 80.12-33.74L80.12-33.74 80.31-33.89 80.41-33.89Q80.61-33.89 80.8-33.62 81-33.35 81.05-33.11L81.05-33.11Q80.51-31.54 80.51-28.86L80.51-28.86 80.51-6.59Q80.51-3.76 80.9-2.25L80.9-2.25Q81-1.9 82.17-1.59 83.34-1.27 83.83-1.27L83.83-1.27Q83.98-1.27 84.03-0.68 84.07-0.1 83.98 0.15L83.98 0.15Q79.09-0.1 78.75-0.1L78.75-0.1Q78.46-0.1 73.43 0.15L73.43 0.15Q73.23-0.05 73.23-0.66 73.23-1.27 73.43-1.27L73.43-1.27Q74.02-1.27 75.16-1.59 76.31-1.9 76.41-2.25L76.41-2.25Q76.75-3.66 76.75-5.66ZM89.44-34.08L89.44-34.08 90.18-34.08Q90.91-34.08 91.27-33.47 91.64-32.86 91.64-30.91L91.64-30.91Q91.64-29.44 90.88-26.44 90.13-23.44 89.98-21.92L89.98-21.92Q89.93-21.19 89.2-21.19L89.2-21.19Q88.56-21.19 88.47-21.83L88.47-21.83Q88.22-24.12 87.51-27.1 86.81-30.08 86.81-31.01L86.81-31.01Q86.81-31.79 87.69-32.93 88.56-34.08 89.44-34.08ZM103.16-21.34L103.16-21.34Q104.24-21.34 105.87-21.07 107.51-20.8 108.14-20.7L108.14-20.7Q108.63-18.46 108.73-15.72L108.73-15.72Q108.73-15.48 108.09-15.48L108.09-15.48Q107.41-15.48 107.36-15.82L107.36-15.82Q107.12-17.19 105.97-18.41 104.82-19.63 103.36-19.63L103.36-19.63Q99.84-19.63 99.84-16.75L99.84-16.75Q99.84-16.02 100.04-15.45 100.23-14.89 100.79-14.38 101.35-13.87 101.65-13.65 101.94-13.43 102.94-12.87 103.94-12.3 104.19-12.16L104.19-12.16Q104.38-12.06 105.33-11.5 106.29-10.94 106.68-10.69 107.07-10.45 107.82-9.86 108.58-9.28 108.92-8.81 109.26-8.35 109.58-7.64 109.9-6.93 109.9-6.2L109.9-6.2Q109.9-3.32 107.65-1.39 105.41 0.54 102.38 0.54L102.38 0.54Q101.35 0.54 100.5 0.42 99.65 0.29 98.47 0 97.3-0.29 96.67-0.39L96.67-0.39Q96.37-1.17 96.11-2.83 95.84-4.49 95.84-5.47L95.84-5.47Q96.23-5.76 96.42-5.76L96.42-5.76Q97.16-5.76 97.2-5.47L97.2-5.47Q97.5-4 99.04-2.61 100.57-1.22 102.38-1.22L102.38-1.22Q103.94-1.22 104.94-2.08 105.94-2.93 105.94-4.54L105.94-4.54Q105.94-5.37 105.63-6.08 105.31-6.79 104.6-7.35 103.89-7.91 103.28-8.28 102.67-8.64 101.55-9.23 100.43-9.81 99.89-10.16L99.89-10.16Q96.08-12.35 96.08-15.38L96.08-15.38Q96.08-18.02 98.21-19.68 100.33-21.34 103.16-21.34ZM130.21-32.03L130.21-32.03Q132.06-32.03 134.92-32.08 137.78-32.13 138.7-32.13L138.7-32.13Q146.66-32.13 151.11-27.44 155.55-22.75 155.55-16.41L155.55-16.41Q155.55-9.33 151.06-4.59 146.56 0.15 138.65 0.15L138.65 0.15Q138.07 0.15 135.16 0.05 132.26-0.05 130.3 0L130.3 0 124.4 0.15Q124.25 0 124.25-0.59L124.25-0.59Q124.25-1.27 124.4-1.27L124.4-1.27Q125.03-1.27 126.28-1.61 127.52-1.95 127.77-2.39L127.77-2.39Q128.11-2.98 128.11-6.98L128.11-6.98 128.11-25.44Q128.11-28.32 127.77-29.64L127.77-29.64Q127.62-30.03 126.33-30.37 125.03-30.71 124.4-30.71L124.4-30.71Q124.2-30.71 124.2-31.3L124.2-31.3Q124.2-31.93 124.4-32.13L124.4-32.13Q126.94-32.03 130.21-32.03ZM132.36-26.12L132.36-26.12 132.36-6.79Q132.36-4.74 133.09-3.08L133.09-3.08Q133.28-2.59 135.7-2.34 138.12-2.1 139.44-2.1L139.44-2.1Q150.67-2.1 150.67-16.6L150.67-16.6Q150.67-22.17 147.71-26.07 144.76-29.98 139.09-29.98L139.09-29.98 138.85-29.98Q133.58-29.98 132.99-29.2L132.99-29.2Q132.36-28.32 132.36-26.12ZM162.65-27.22Q161.94-27.93 161.94-28.96 161.94-29.98 162.65-30.69 163.36-31.4 164.38-31.4 165.41-31.4 166.12-30.69 166.83-29.98 166.83-28.96 166.83-27.93 166.12-27.22 165.41-26.51 164.38-26.51 163.36-26.51 162.65-27.22ZM166.63-16.65L166.63-6.59Q166.63-3.76 167.02-2.25L167.02-2.25Q167.12-1.9 168.29-1.59 169.46-1.27 169.95-1.27L169.95-1.27Q170.1-1.27 170.15-0.68 170.19-0.1 170.1 0.15L170.1 0.15Q165.21-0.1 164.87-0.1 164.53-0.1 159.55 0.15L159.55 0.15Q159.36-0.05 159.36-0.66 159.36-1.27 159.55-1.27L159.55-1.27Q160.14-1.27 161.28-1.59 162.43-1.9 162.53-2.25L162.53-2.25Q162.87-3.66 162.87-5.66L162.87-5.66 162.87-14.89Q162.87-16.8 162.19-17.53L162.19-17.53Q161.7-18.12 160.99-18.33 160.28-18.55 159.82-18.55 159.36-18.55 159.36-18.65L159.36-18.65Q159.36-19.82 159.65-19.87L159.65-19.87Q164.82-20.65 166.39-21.14L166.39-21.14 166.48-21.19Q166.58-21.19 166.63-21.19L166.63-21.19Q166.83-21.19 166.87-20.78 166.92-20.36 166.87-20.17L166.87-20.17Q166.63-18.21 166.63-16.65L166.63-16.65ZM189.43 4.15L189.43 4.15Q189.43 2.1 187.43 1.39 185.43 0.68 179.47 0.68L179.47 0.68Q179.37 0.68 179.18 0.78L179.18 0.78Q179.13 0.83 178.74 1 178.35 1.17 178.25 1.22 178.15 1.27 177.81 1.49 177.47 1.71 177.35 1.78 177.22 1.86 176.93 2.08 176.64 2.29 176.54 2.47 176.44 2.64 176.25 2.88 176.05 3.13 175.98 3.37 175.91 3.61 175.83 3.93 175.76 4.25 175.76 4.59L175.76 4.59Q175.76 6.69 177.93 7.98 180.1 9.28 182.74 9.28L182.74 9.28Q185.67 9.28 187.55 7.71 189.43 6.15 189.43 4.15ZM176.93-14.45L176.93-14.45Q176.93-12.21 178.32-10.64 179.71-9.08 181.57-9.08L181.57-9.08Q183.47-9.08 184.72-10.55 185.96-12.01 185.96-14.06L185.96-14.06Q185.96-16.31 184.57-17.87 183.18-19.43 181.33-19.43L181.33-19.43Q179.42-19.43 178.18-17.97 176.93-16.5 176.93-14.45ZM181.52-21.09L181.52-21.09Q183.33-21.09 185.67-20.46 188.01-19.82 189.53-19.82L189.53-19.82 192.36-19.82Q192.65-19.73 192.65-18.6L192.65-18.6Q192.65-17.92 192.36-17.92L192.36-17.92 188.89-17.92Q188.7-17.92 188.7-17.77L188.7-17.77 189.19-16.6Q189.72-15.43 189.72-14.26L189.72-14.26Q189.72-11.62 187.38-9.52 185.04-7.42 181.62-7.42L181.62-7.42Q180.06-7.42 178.88-7.62L178.88-7.62Q178.25-7.28 177.54-6.4 176.83-5.52 176.83-4.83 176.83-4.15 177.22-3.74 177.61-3.32 178.35-3.15 179.08-2.98 179.76-2.91 180.45-2.83 181.37-2.83L181.37-2.83Q181.62-2.83 181.72-2.83L181.72-2.83Q187.77-2.73 190.21-1.59 192.65-0.44 192.65 1.86L192.65 1.86Q192.65 5.62 189.48 8.33 186.31 11.04 181.33 11.08L181.33 11.08Q177.86 11.13 175.1 9.77 172.34 8.4 172.34 5.66L172.34 5.66Q172.34 2.64 177.13 0.49L177.13 0.49Q175.81 0.29 174.68-0.73 173.56-1.76 173.56-3.22L173.56-3.22Q173.56-4.49 174.66-5.86 175.76-7.23 177.13-8.11L177.13-8.11Q175.66-8.64 174.42-10.42 173.17-12.21 173.17-14.26L173.17-14.26Q173.17-17.14 175.59-19.12 178-21.09 181.52-21.09ZM198.93-27.22Q198.22-27.93 198.22-28.96 198.22-29.98 198.93-30.69 199.63-31.4 200.66-31.4 201.68-31.4 202.39-30.69 203.1-29.98 203.1-28.96 203.1-27.93 202.39-27.22 201.68-26.51 200.66-26.51 199.63-26.51 198.93-27.22ZM202.9-16.65L202.9-6.59Q202.9-3.76 203.3-2.25L203.3-2.25Q203.39-1.9 204.56-1.59 205.74-1.27 206.23-1.27L206.23-1.27Q206.37-1.27 206.42-0.68 206.47-0.1 206.37 0.15L206.37 0.15Q201.49-0.1 201.15-0.1 200.81-0.1 195.82 0.15L195.82 0.15Q195.63-0.05 195.63-0.66 195.63-1.27 195.82-1.27L195.82-1.27Q196.41-1.27 197.56-1.59 198.71-1.9 198.8-2.25L198.8-2.25Q199.14-3.66 199.14-5.66L199.14-5.66 199.14-14.89Q199.14-16.8 198.46-17.53L198.46-17.53Q197.97-18.12 197.27-18.33 196.56-18.55 196.09-18.55 195.63-18.55 195.63-18.65L195.63-18.65Q195.63-19.82 195.92-19.87L195.92-19.87Q201.1-20.65 202.66-21.14L202.66-21.14 202.76-21.19Q202.86-21.19 202.9-21.19L202.9-21.19Q203.1-21.19 203.15-20.78 203.2-20.36 203.15-20.17L203.15-20.17Q202.9-18.21 202.9-16.65L202.9-16.65ZM211.11-5.86L211.11-18.26 208.27-18.26Q208.03-18.26 208.03-19.29L208.03-19.29Q208.03-19.58 208.08-19.63L208.08-19.63Q209.49-20.26 211.15-22.22L211.15-22.22Q211.69-22.85 212.2-23.66 212.72-24.46 213.06-25.05 213.4-25.63 213.4-25.68L213.4-25.68Q214.87-25.68 214.87-25.44L214.87-25.44 214.87-20.61Q216.13-20.61 218.72-20.58 221.31-20.56 221.46-20.56L221.46-20.56Q221.85-20.56 221.85-20.12L221.85-20.12Q221.85-19.24 221.36-18.26L221.36-18.26 214.87-18.26 214.87-6.3Q214.87-4.35 215.87-3.17 216.87-2 218.48-2L218.48-2Q219.94-2 221.51-2.93L221.51-2.93Q221.65-3.03 221.95-2.51 222.24-2 222.19-1.95L222.19-1.95Q221.46-1.17 219.94-0.42 218.43 0.34 216.82 0.34L216.82 0.34Q214.38 0.34 212.74-1.27 211.11-2.88 211.11-5.86L211.11-5.86ZM229.36-3.15Q230.19-2.44 231.51-2.44 232.83-2.44 234.05-3.25 235.27-4.05 235.27-4.88L235.27-4.88 235.27-9.91Q234.88-9.72 233.37-9.23 231.85-8.74 231-8.37 230.15-8.01 229.34-7.15 228.53-6.3 228.53-5.18L228.53-5.18Q228.53-3.86 229.36-3.15ZM233.95-21.29L233.95-21.29Q236.64-21.29 237.81-20 238.98-18.7 238.98-15.82L238.98-15.82 238.98-4.54Q238.98-3.52 239.52-2.83 240.06-2.15 240.99-2.15L240.99-2.15Q241.67-2.15 242.69-2.83L242.69-2.83Q242.89-2.83 242.89-2.44L242.89-2.44Q242.89-1.81 242.65-1.42L242.65-1.42Q240.64 0.29 239.23 0.29L239.23 0.29Q238.1 0.29 237.08-0.63 236.05-1.56 235.66-2.59L235.66-2.59Q235.61-2.59 235.3-2.27 234.98-1.95 234.44-1.54 233.91-1.12 233.2-0.68 232.49-0.24 231.54 0.05 230.59 0.34 229.61 0.34L229.61 0.34Q227.36 0.34 225.9-0.85 224.43-2.05 224.43-4.44L224.43-4.44Q224.43-5.52 224.97-6.47 225.51-7.42 226.24-8.03 226.97-8.64 228.24-9.28 229.51-9.91 230.41-10.23 231.32-10.55 232.78-11.04 234.25-11.52 234.83-11.77L234.83-11.77Q235.27-11.91 235.27-12.5L235.27-12.5 235.27-16.16Q235.27-17.72 234.3-18.58 233.32-19.43 231.95-19.43L231.95-19.43Q230.49-19.43 229.51-18.43 228.53-17.43 228.53-15.82L228.53-15.82Q228.53-14.11 226.53-14.11L226.53-14.11Q225.17-14.11 224.63-15.04L224.63-15.04Q224.63-17.14 227.7-19.21 230.78-21.29 233.95-21.29ZM247.43-5.66L247.43-5.66 247.43-26.81Q247.43-28.47 247.14-29.93L247.14-29.93Q246.89-30.71 244.65-30.71L244.65-30.71 244.21-30.71Q243.91-30.71 243.91-31.25L243.91-31.25Q243.91-32.03 244.21-32.03L244.21-32.03Q245.67-32.18 246.92-32.42 248.16-32.67 248.87-32.91 249.58-33.15 250.07-33.37 250.55-33.59 250.8-33.74L250.8-33.74 250.99-33.89 251.09-33.89Q251.29-33.89 251.48-33.62 251.68-33.35 251.73-33.11L251.73-33.11Q251.19-31.54 251.19-28.86L251.19-28.86 251.19-6.59Q251.19-3.76 251.58-2.25L251.58-2.25Q251.68-1.9 252.85-1.59 254.02-1.27 254.51-1.27L254.51-1.27Q254.66-1.27 254.7-0.68 254.75-0.1 254.66 0.15L254.66 0.15Q249.77-0.1 249.43-0.1L249.43-0.1Q249.14-0.1 244.11 0.15L244.11 0.15Q243.91-0.05 243.91-0.66 243.91-1.27 244.11-1.27L244.11-1.27Q244.69-1.27 245.84-1.59 246.99-1.9 247.09-2.25L247.09-2.25Q247.43-3.66 247.43-5.66ZM268.76-32.13L274.62-32.03Q276.09-32.03 278.09-32.13 280.09-32.23 281.51-32.23L281.51-32.23Q283.12-32.23 284.75-31.74 286.39-31.25 287.93-30.27 289.46-29.3 290.44-27.49 291.42-25.68 291.42-23.29L291.42-23.29Q291.42-21.88 290.81-20.24 290.2-18.6 289.03-17.07 287.85-15.53 285.88-14.53 283.9-13.53 281.46-13.53L281.46-13.53Q278.72-13.53 277.7-14.89L277.7-14.89Q277.4-15.23 277.55-16.02L277.55-16.02Q277.6-16.21 277.7-16.16L277.7-16.16Q279.16-15.63 280.97-15.63L280.97-15.63Q283.41-15.63 285.17-17.68 286.93-19.73 286.93-22.56L286.93-22.56Q286.93-26.03 285.41-28.05 283.9-30.08 280.72-30.08L280.72-30.08Q278.53-30.08 277.31-29.74L277.31-29.74Q277.06-29.69 276.96-29.37 276.87-29.05 276.79-27.88 276.72-26.71 276.72-24.37L276.72-24.37 276.72-6.93Q276.72-3.66 277.11-2.69L277.11-2.69Q277.36-2.05 278.84-1.66 280.33-1.27 280.97-1.27L280.97-1.27Q281.16-1.27 281.16-0.59L281.16-0.59Q281.16-0.15 281.07 0.15L281.07 0.15Q276.18-0.1 274.72-0.1L274.72-0.1 268.76 0.15Q268.61 0 268.61-0.73L268.61-0.73Q268.61-1.37 268.76-1.37L268.76-1.37Q269.44-1.37 270.67-1.66 271.89-1.95 272.13-2.39L272.13-2.39Q272.47-2.98 272.47-6.98L272.47-6.98 272.47-25.44Q272.47-28.32 272.13-29.64L272.13-29.64Q271.98-30.03 270.69-30.37 269.4-30.71 268.76-30.71L268.76-30.71Q268.57-30.71 268.57-31.3L268.57-31.3Q268.57-31.93 268.76-32.13L268.76-32.13ZM305.09-19.43L305.09-19.43Q302.5-19.43 300.86-17.07 299.23-14.7 299.23-11.28L299.23-11.28Q299.23-7.28 301.3-4.42 303.38-1.56 306.16-1.56L306.16-1.56Q308.75-1.56 310.41-4 312.07-6.45 312.07-9.86L312.07-9.86Q312.07-13.82 309.97-16.63 307.87-19.43 305.09-19.43ZM305.62-21.34L305.62-21.34Q310.02-21.34 313.14-18.16 316.27-14.99 316.27-10.55L316.27-10.55Q316.27-6.05 313.22-2.86 310.17 0.34 305.72 0.34 301.28 0.34 298.15-2.86 295.03-6.05 295.03-10.55L295.03-10.55Q295.03-15.09 298.06-18.21 301.08-21.34 305.62-21.34ZM332.43-21.34L332.43-21.34Q335.31-21.34 336.24-19.92L336.24-19.92Q336.24-18.21 335.7-17.43 335.16-16.65 334.38-16.65L334.38-16.65Q333.5-16.65 332.77-17.48 332.04-18.31 330.77-18.31L330.77-18.31Q329.25-18.31 328.13-16.89 327.01-15.48 327.01-13.92L327.01-13.92 327.01-6.59Q327.01-3.76 327.4-2.25L327.4-2.25Q327.5-1.9 328.69-1.59 329.89-1.27 330.38-1.27L330.38-1.27Q330.52-1.27 330.57-0.68 330.62-0.1 330.52 0.15L330.52 0.15Q325.64-0.1 325.25-0.1L325.25-0.1Q324.96-0.1 319.93 0.15L319.93 0.15Q319.73-0.05 319.73-0.66 319.73-1.27 319.93-1.27L319.93-1.27Q320.51-1.27 321.66-1.59 322.81-1.9 322.91-2.25L322.91-2.25Q323.25-3.66 323.25-5.66L323.25-5.66 323.25-14.89Q323.25-16.8 322.56-17.53L322.56-17.53Q322.08-18.12 321.37-18.33 320.66-18.55 320.2-18.55 319.73-18.55 319.73-18.65L319.73-18.65Q319.73-19.82 320.03-19.87L320.03-19.87Q325.2-20.65 326.76-21.14L326.76-21.14Q326.81-21.14 326.91-21.17 327.01-21.19 327.01-21.19L327.01-21.19Q327.2-21.19 327.25-20.78 327.3-20.36 327.25-20.17L327.25-20.17 326.96-17.72Q327.84-19.04 329.38-20.19 330.91-21.34 332.43-21.34ZM340.58-5.86L340.58-18.26 337.75-18.26Q337.5-18.26 337.5-19.29L337.5-19.29Q337.5-19.58 337.55-19.63L337.55-19.63Q338.97-20.26 340.63-22.22L340.63-22.22Q341.17-22.85 341.68-23.66 342.19-24.46 342.53-25.05 342.87-25.63 342.87-25.68L342.87-25.68Q344.34-25.68 344.34-25.44L344.34-25.44 344.34-20.61Q345.61-20.61 348.2-20.58 350.79-20.56 350.93-20.56L350.93-20.56Q351.32-20.56 351.32-20.12L351.32-20.12Q351.32-19.24 350.83-18.26L350.83-18.26 344.34-18.26 344.34-6.3Q344.34-4.35 345.34-3.17 346.34-2 347.95-2L347.95-2Q349.42-2 350.98-2.93L350.98-2.93Q351.13-3.03 351.42-2.51 351.71-2 351.66-1.95L351.66-1.95Q350.93-1.17 349.42-0.42 347.9 0.34 346.29 0.34L346.29 0.34Q343.85 0.34 342.22-1.27 340.58-2.88 340.58-5.86L340.58-5.86ZM366.51-33.94L366.51-33.94Q370.02-33.94 371.14-32.03L371.14-32.03Q371.14-28.96 369.39-28.96L369.39-28.96Q368.75-28.96 368.17-29.71 367.58-30.47 366.82-31.25 366.07-32.03 364.99-32.03L364.99-32.03Q362.84-32.03 361.67-29.39 360.5-26.76 360.5-23.19L360.5-23.19 360.5-20.7Q360.5-20.46 360.74-20.46L360.74-20.46 366.16-20.46Q366.41-20.46 366.41-20.12L366.41-20.12Q366.41-19.34 365.82-18.16L365.82-18.16 360.79-18.16Q360.5-18.16 360.5-17.87L360.5-17.87 360.5-6.59Q360.5-3.96 360.94-2.25L360.94-2.25Q361.04-1.9 362.14-1.59 363.23-1.27 363.67-1.27L363.67-1.27Q363.82-1.27 363.87-0.68 363.92-0.1 363.82 0.15L363.82 0.15Q358.94-0.1 358.6-0.1L358.6-0.1Q358.45-0.1 353.47 0.15L353.47 0.15Q353.37 0.05 353.32-0.32 353.27-0.68 353.32-0.98 353.37-1.27 353.47-1.27L353.47-1.27Q354.05-1.27 355.13-1.59 356.2-1.9 356.3-2.25L356.3-2.25Q356.79-4.15 356.79-6.59L356.79-6.59 356.79-17.82Q356.79-18.16 356.54-18.16L356.54-18.16 353.96-18.16Q353.81-18.16 353.81-18.46L353.81-18.46Q353.81-18.9 354.59-19.68 355.37-20.46 356.25-20.46L356.25-20.46 356.54-20.46Q356.79-20.46 356.79-20.75L356.79-20.75 356.79-21.39Q356.79-26.51 359.84-30.22 362.89-33.94 366.51-33.94ZM378.56-19.43L378.56-19.43Q375.98-19.43 374.34-17.07 372.7-14.7 372.7-11.28L372.7-11.28Q372.7-7.28 374.78-4.42 376.85-1.56 379.64-1.56L379.64-1.56Q382.23-1.56 383.89-4 385.55-6.45 385.55-9.86L385.55-9.86Q385.55-13.82 383.45-16.63 381.35-19.43 378.56-19.43ZM379.1-21.34L379.1-21.34Q383.49-21.34 386.62-18.16 389.74-14.99 389.74-10.55L389.74-10.55Q389.74-6.05 386.69-2.86 383.64 0.34 379.2 0.34 374.75 0.34 371.63-2.86 368.5-6.05 368.5-10.55L368.5-10.55Q368.5-15.09 371.53-18.21 374.56-21.34 379.1-21.34ZM395.85-5.66L395.85-5.66 395.85-26.81Q395.85-28.47 395.55-29.93L395.55-29.93Q395.31-30.71 393.06-30.71L393.06-30.71 392.62-30.71Q392.33-30.71 392.33-31.25L392.33-31.25Q392.33-32.03 392.62-32.03L392.62-32.03Q394.09-32.18 395.33-32.42 396.58-32.67 397.29-32.91 397.99-33.15 398.48-33.37 398.97-33.59 399.22-33.74L399.22-33.74 399.41-33.89 399.51-33.89Q399.7-33.89 399.9-33.62 400.09-33.35 400.14-33.11L400.14-33.11Q399.61-31.54 399.61-28.86L399.61-28.86 399.61-6.59Q399.61-3.76 400-2.25L400-2.25Q400.09-1.9 401.27-1.59 402.44-1.27 402.93-1.27L402.93-1.27Q403.07-1.27 403.12-0.68 403.17-0.1 403.07 0.15L403.07 0.15Q398.19-0.1 397.85-0.1L397.85-0.1Q397.55-0.1 392.53 0.15L392.53 0.15Q392.33-0.05 392.33-0.66 392.33-1.27 392.53-1.27L392.53-1.27Q393.11-1.27 394.26-1.59 395.41-1.9 395.5-2.25L395.5-2.25Q395.85-3.66 395.85-5.66ZM408.71-27.22Q408-27.93 408-28.96 408-29.98 408.71-30.69 409.42-31.4 410.44-31.4 411.47-31.4 412.18-30.69 412.88-29.98 412.88-28.96 412.88-27.93 412.18-27.22 411.47-26.51 410.44-26.51 409.42-26.51 408.71-27.22ZM412.69-16.65L412.69-6.59Q412.69-3.76 413.08-2.25L413.08-2.25Q413.18-1.9 414.35-1.59 415.52-1.27 416.01-1.27L416.01-1.27Q416.16-1.27 416.2-0.68 416.25-0.1 416.16 0.15L416.16 0.15Q411.27-0.1 410.93-0.1 410.59-0.1 405.61 0.15L405.61 0.15Q405.41-0.05 405.41-0.66 405.41-1.27 405.61-1.27L405.61-1.27Q406.2-1.27 407.34-1.59 408.49-1.9 408.59-2.25L408.59-2.25Q408.93-3.66 408.93-5.66L408.93-5.66 408.93-14.89Q408.93-16.8 408.25-17.53L408.25-17.53Q407.76-18.12 407.05-18.33 406.34-18.55 405.88-18.55 405.41-18.55 405.41-18.65L405.41-18.65Q405.41-19.82 405.71-19.87L405.71-19.87Q410.88-20.65 412.45-21.14L412.45-21.14 412.54-21.19Q412.64-21.19 412.69-21.19L412.69-21.19Q412.88-21.19 412.93-20.78 412.98-20.36 412.93-20.17L412.93-20.17Q412.69-18.21 412.69-16.65L412.69-16.65ZM428.85-19.43L428.85-19.43Q426.26-19.43 424.63-17.07 422.99-14.7 422.99-11.28L422.99-11.28Q422.99-7.28 425.06-4.42 427.14-1.56 429.92-1.56L429.92-1.56Q432.51-1.56 434.17-4 435.83-6.45 435.83-9.86L435.83-9.86Q435.83-13.82 433.73-16.63 431.63-19.43 428.85-19.43ZM429.39-21.34L429.39-21.34Q433.78-21.34 436.91-18.16 440.03-14.99 440.03-10.55L440.03-10.55Q440.03-6.05 436.98-2.86 433.93 0.34 429.48 0.34 425.04 0.34 421.92-2.86 418.79-6.05 418.79-10.55L418.79-10.55Q418.79-15.09 421.82-18.21 424.84-21.34 429.39-21.34Z" opacity="1" transform="matrix(1,0,0,1,0,0)" fill="white" class="wordmark-text-0" id="SvgjsPath1775"></path></svg></g></svg></g><g transform="matrix(1,0,0,1,0,22.6817886110746)"><svg viewBox="0 0 192 8.907052191055927" height="8.907052191055927" width="192"><g transform="matrix(1,0,0,1,0,0)"><svg width="192" viewBox="1.9499999999999997 -33.5 732.9 34" height="8.907052191055927" data-palette-color="url(#2ac423a3-6c59-4f5d-bf6e-7172c8c2a699)"></svg></g></svg></g></svg></g></svg></g><g transform="matrix(1,0,0,1,63.44764471166698,0)"><svg viewBox="0 0 65.10471057666604 43.65577798854439" height="43.65577798854439" width="65.10471057666604"><g><svg xmlns="http://www.w3.org/2000/svg" xmlns:xlink="http://www.w3.org/1999/xlink" version="1.1" x="0" y="0" viewBox="2.2 15.4 85.9 57.6" enable-background="new 0 0 90 90" xml:space="preserve" height="43.65577798854439" width="65.10471057666604" class="icon-icon-0" data-fill-palette-color="accent" id="SvgjsSvg1773"></svg></g></svg></g><g></g></svg></g></svg></g></svg></g></svg></g><defs><mask></mask></defs></svg></g></mask><linearGradient x1="0.054" x2="0.941" y1="0.5" y2="0.5" id="9033fa86-92a7-42e3-841a-a5db1a108712"><stop stop-color="#0f3054" offset="0"></stop><stop stop-color="#3b8dcb" offset="0.498"></stop><stop stop-color="#0f3054" offset="1"></stop></linearGradient><rect width="320.000047" height="360" fill="url(#9033fa86-92a7-42e3-841a-a5db1a108712)" mask="url(#e44cc6f2-03f5-4f6f-ba82-8d2eed6d9bb1)" data-fill-palette-color="primary"></rect><mask id="6fc9c531-2cd5-4779-b51e-0d5f701eae0c"><g id="SvgjsG1788"><svg viewBox="0 0 320 360" height="360" width="320"><g><svg></svg></g><g><svg viewBox="0 0 320 360" height="360" width="320"><g></g><g transform="matrix(1,0,0,1,64,140.93352095585405)"><svg viewBox="0 0 192 78.13295808829191" height="78.13295808829191" width="192"><g><svg viewBox="0 0 192 78.13295808829191" height="78.13295808829191" width="192"><g><svg viewBox="0 0 192 78.13295808829191" height="78.13295808829191" width="192"><g transform="matrix(1,0,0,1,0,46.54411728616138)"><svg viewBox="0 0 192 31.58884080213053" height="31.58884080213053" width="192"><g id="SvgjsG1787"><svg viewBox="0 0 192 31.58884080213053" height="31.58884080213053" width="192" id="SvgjsSvg1786"><g><svg viewBox="0 0 192 19.793449313457614" height="19.793449313457614" width="192"><g transform="matrix(1,0,0,1,0,0)"><svg width="192" viewBox="1.95 -34.08 438.08 45.161718691651004" height="19.793449313457614" data-palette-color="url(#9033fa86-92a7-42e3-841a-a5db1a108712)"></svg></g></svg></g><g transform="matrix(1,0,0,1,0,22.6817886110746)"><svg viewBox="0 0 192 8.907052191055927" height="8.907052191055927" width="192"><g transform="matrix(1,0,0,1,0,0)"><svg width="192" viewBox="1.9499999999999997 -33.5 732.9 34" height="8.907052191055927" data-palette-color="url(#2ac423a3-6c59-4f5d-bf6e-7172c8c2a699)"><path d="M19.85-31.7L19.85-31.7Q16.15-31.7 13.43-30.38 10.7-29.05 8.9-26.93 7.1-24.8 6.23-22.15 5.35-19.5 5.35-16.9L5.35-16.9Q5.35-13.95 6.5-11.13 7.65-8.3 9.68-6.13 11.7-3.95 14.4-2.63 17.1-1.3 20.25-1.3L20.25-1.3Q21.15-1.3 22.38-1.5 23.6-1.7 24.8-2.27 26-2.85 27.03-3.9 28.05-4.95 28.6-6.65L28.6-6.65 29.1-6.65 29.1-1.1Q28.35-1.1 27.53-0.9 26.7-0.7 25.7-0.45L25.7-0.45Q24.4-0.1 22.83 0.2 21.25 0.5 19.5 0.5L19.5 0.5Q15.15 0.5 11.85-1 8.55-2.5 6.35-4.9 4.15-7.3 3.05-10.33 1.95-13.35 1.95-16.45L1.95-16.45Q1.95-19.55 3.05-22.6 4.15-25.65 6.4-28.08 8.65-30.5 12.05-32 15.45-33.5 20.05-33.5L20.05-33.5Q21.7-33.5 23.03-33.2 24.35-32.9 25.4-32.6L25.4-32.6Q26.15-32.35 26.78-32.23 27.4-32.1 28-32.1L28-32.1 28-26.55 27.5-26.55Q27.2-28.1 26.4-29.13 25.6-30.15 24.53-30.7 23.45-31.25 22.23-31.48 21-31.7 19.85-31.7ZM66.96 0.35L66.96 0.35Q64.46 0.35 62.46-0.48 60.46-1.3 59.03-2.73 57.61-4.15 56.83-6.1 56.06-8.05 56.06-10.35L56.06-10.35Q56.06-12.8 56.91-14.83 57.76-16.85 59.26-18.3 60.76-19.75 62.81-20.55 64.86-21.35 67.26-21.35L67.26-21.35Q69.66-21.35 71.66-20.58 73.66-19.8 75.11-18.4 76.56-17 77.36-15.08 78.16-13.15 78.16-10.85L78.16-10.85Q78.16-8.7 77.43-6.68 76.71-4.65 75.28-3.1 73.86-1.55 71.78-0.6 69.71 0.35 66.96 0.35ZM66.66-19.7L66.66-19.7Q64.86-19.6 63.48-18.82 62.11-18.05 61.18-16.82 60.26-15.6 59.78-14.05 59.31-12.5 59.31-10.9L59.31-10.9Q59.31-9.05 59.88-7.33 60.46-5.6 61.53-4.25 62.61-2.9 64.11-2.1 65.61-1.3 67.46-1.3L67.46-1.3Q69.31-1.3 70.73-2.1 72.16-2.9 73.11-4.17 74.06-5.45 74.53-7.05 75.01-8.65 75.01-10.25L75.01-10.25Q75.01-11.9 74.51-13.58 74.01-15.25 72.96-16.63 71.91-18 70.33-18.85 68.76-19.7 66.66-19.7ZM126.46 0L121.56 0 121.56-2.2Q120.71-1.25 119.29-0.45 117.86 0.35 115.71 0.35L115.71 0.35Q113.06 0.35 111.09-0.58 109.11-1.5 107.81-3 106.51-4.5 105.89-6.43 105.26-8.35 105.26-10.4L105.26-10.4Q105.26-12.4 105.91-14.38 106.56-16.35 107.86-17.9 109.16-19.45 111.11-20.4 113.06-21.35 115.61-21.35L115.61-21.35Q117.31-21.35 118.96-20.73 120.61-20.1 121.56-19.1L121.56-19.1 121.56-28.85Q121.56-29.7 121.31-30.45 121.06-31.2 119.86-31.25L119.86-31.25 119.86-31.75 124.86-33.3 124.86-3.25Q124.86-2.85 124.96-2.38 125.06-1.9 125.26-1.5 125.46-1.1 125.76-0.8 126.06-0.5 126.46-0.5L126.46-0.5 126.46 0ZM116.06-1.3L116.06-1.3Q117.11-1.3 118.11-1.73 119.11-2.15 119.86-2.88 120.61-3.6 121.09-4.58 121.56-5.55 121.56-6.7L121.56-6.7 121.56-13.55Q121.56-14.95 120.96-16.07 120.36-17.2 119.46-18 118.56-18.8 117.49-19.23 116.41-19.65 115.41-19.65L115.41-19.65Q113.76-19.65 112.46-18.88 111.16-18.1 110.26-16.88 109.36-15.65 108.91-14.13 108.46-12.6 108.46-11.1L108.46-11.1Q108.46-9.35 108.96-7.63 109.46-5.9 110.44-4.53 111.41-3.15 112.81-2.25 114.21-1.35 116.06-1.3ZM174.47-10.1L157.12-10.1Q157.32-8.35 157.97-6.78 158.62-5.2 159.69-4 160.77-2.8 162.32-2.08 163.87-1.35 165.92-1.35L165.92-1.35Q167.02-1.35 168.24-1.68 169.47-2 170.52-2.6 171.57-3.2 172.39-4.08 173.22-4.95 173.52-6.05L173.52-6.05 173.97-6.05 173.97-2.3Q173.67-2.3 173.29-2.1 172.92-1.9 172.42-1.6L172.42-1.6Q171.42-1 169.72-0.33 168.02 0.35 165.22 0.35L165.22 0.35Q162.97 0.35 160.94-0.3 158.92-0.95 157.37-2.3 155.82-3.65 154.89-5.75 153.97-7.85 153.97-10.75L153.97-10.75Q153.97-12.6 154.59-14.5 155.22-16.4 156.49-17.93 157.77-19.45 159.77-20.4 161.77-21.35 164.57-21.35L164.57-21.35Q167.07-21.35 168.94-20.5 170.82-19.65 172.04-18.15 173.27-16.65 173.87-14.6 174.47-12.55 174.47-10.1L174.47-10.1ZM164.37-19.7L164.37-19.7Q162.62-19.7 161.34-19 160.07-18.3 159.17-17.2 158.27-16.1 157.77-14.7 157.27-13.3 157.12-11.9L157.12-11.9 171.37-11.9Q171.32-13.35 170.84-14.75 170.37-16.15 169.52-17.25 168.67-18.35 167.37-19.03 166.07-19.7 164.37-19.7ZM268.38-21L268.38-20.5Q267.48-20.5 267.01-20 266.53-19.5 266.13-18.5L266.13-18.5 258.58 0.4 252.13-15.4 245.73 0.35 238.33-17.95Q237.98-18.8 237.46-19.65 236.93-20.5 236.08-20.5L236.08-20.5 236.08-21 242.93-21 242.93-20.5Q242.58-20.5 242.06-20.18 241.53-19.85 241.53-19.1L241.53-19.1Q241.53-19 241.61-18.68 241.68-18.35 241.78-18.1L241.78-18.1 246.68-6 252.98-21.55 259.33-6 264.28-18.3Q264.53-19.05 264.53-19.35L264.53-19.35Q264.53-19.75 264.28-20.1 264.03-20.45 263.43-20.5L263.43-20.5 263.43-21 268.38-21ZM301.69 0L295.19 0 295.19-0.5Q295.59-0.5 295.89-0.8 296.19-1.1 296.39-1.5 296.59-1.9 296.69-2.38 296.79-2.85 296.79-3.25L296.79-3.25 296.79-17.1Q296.79-17.95 296.54-18.73 296.29-19.5 295.09-19.55L295.09-19.55 295.09-20 300.09-21.6 300.09-3.25Q300.09-2.85 300.19-2.38 300.29-1.9 300.49-1.5 300.69-1.1 300.99-0.8 301.29-0.5 301.69-0.5L301.69-0.5 301.69 0ZM295.44-26.4L295.44-26.4Q295.44-27.4 296.11-28.1 296.79-28.8 297.79-28.8L297.79-28.8Q298.79-28.8 299.49-28.1 300.19-27.4 300.19-26.4L300.19-26.4Q300.19-25.4 299.49-24.75 298.79-24.1 297.79-24.1L297.79-24.1Q296.79-24.1 296.11-24.75 295.44-25.4 295.44-26.4ZM340.59-19.3L334.99-19.3 334.99-7.25Q334.99-5.95 335.04-4.9 335.09-3.85 335.29-3.15 335.49-2.45 335.89-2.08 336.29-1.7 336.99-1.7L336.99-1.7Q338.04-1.7 338.97-2.7 339.89-3.7 340.14-5.1L340.14-5.1 340.59-5.1 340.59-1.45Q340.14-1.45 339.84-1.15L339.84-1.15Q339.44-0.8 338.72-0.4 337.99 0 336.54 0L336.54 0Q334.74 0 333.74-0.7 332.74-1.4 332.29-2.55 331.84-3.7 331.77-5.1 331.69-6.5 331.69-7.95L331.69-7.95 331.69-19.3 328.89-19.3 328.89-21 331.69-21 331.69-25.45Q331.69-26.3 331.47-27.03 331.24-27.75 329.99-27.8L329.99-27.8 329.99-28.3 334.99-29.9 334.99-21 340.59-21 340.59-19.3ZM387.5-12.9L387.5-3.25Q387.5-2.85 387.6-2.38 387.7-1.9 387.93-1.5 388.15-1.1 388.43-0.8 388.7-0.5 389.1-0.5L389.1-0.5 389.1 0 382.65 0 382.65-0.5Q383-0.5 383.3-0.8 383.6-1.1 383.83-1.5 384.05-1.9 384.15-2.38 384.25-2.85 384.25-3.25L384.25-3.25 384.25-12.55Q384.25-14.35 383.75-15.7 383.25-17.05 382.4-17.95 381.55-18.85 380.48-19.28 379.4-19.7 378.3-19.7L378.3-19.7Q377.2-19.7 376.13-19.28 375.05-18.85 374.23-18.1 373.4-17.35 372.88-16.28 372.35-15.2 372.35-13.9L372.35-13.9 372.35-3.25Q372.35-2.85 372.45-2.38 372.55-1.9 372.78-1.5 373-1.1 373.28-0.8 373.55-0.5 373.95-0.5L373.95-0.5 373.95 0 367.45 0 367.45-0.5Q367.8-0.5 368.1-0.8 368.4-1.1 368.63-1.5 368.85-1.9 368.95-2.38 369.05-2.85 369.05-3.25L369.05-3.25 369.05-28.8Q369.05-29.65 368.8-30.4 368.55-31.15 367.35-31.2L367.35-31.2 367.35-31.7 372.35-33.25 372.35-18.8Q372.7-19.2 373.25-19.68 373.8-20.15 374.58-20.58 375.35-21 376.38-21.28 377.4-21.55 378.8-21.55L378.8-21.55Q381.15-21.55 382.8-20.75 384.45-19.95 385.5-18.68 386.55-17.4 387.03-15.88 387.5-14.35 387.5-12.9L387.5-12.9ZM453.06-32.5L453.06-33 460.16-33Q465.71-33 468.59-30.88 471.46-28.75 471.46-24.85L471.46-24.85Q471.46-22.75 470.46-21.1 469.46-19.45 467.84-18.32 466.21-17.2 464.19-16.6 462.16-16 460.16-16L460.16-16 458.26-16 458.26-3.25Q458.26-2.85 458.36-2.38 458.46-1.9 458.69-1.5 458.91-1.1 459.19-0.8 459.46-0.5 459.86-0.5L459.86-0.5 460.11-0.5 460.11 0 453.06 0 453.06-0.5 453.31-0.5Q453.66-0.5 453.96-0.8 454.26-1.1 454.46-1.5 454.66-1.9 454.76-2.38 454.86-2.85 454.86-3.25L454.86-3.25 454.86-29.9Q454.86-30.6 454.46-31.5 454.06-32.4 453.31-32.5L453.31-32.5 453.06-32.5ZM458.96-31.25L458.26-31.25 458.26-17.75 459.76-17.75Q461.76-17.75 463.34-18.3 464.91-18.85 465.96-19.75 467.01-20.65 467.56-21.8 468.11-22.95 468.11-24.15L468.11-24.15Q468.11-25.6 467.64-26.88 467.16-28.15 466.09-29.13 465.01-30.1 463.26-30.68 461.51-31.25 458.96-31.25L458.96-31.25ZM513.27 0L508.42 0 508.42-2.55 508.17-2.3Q506.92-1.05 505.3-0.35 503.67 0.35 501.37 0.35L501.37 0.35Q499.62 0.35 498.37-0.05 497.12-0.45 496.32-1.18 495.52-1.9 495.15-2.85 494.77-3.8 494.77-4.85L494.77-4.85Q494.77-6.55 495.7-7.85 496.62-9.15 498.37-10.15 500.12-11.15 502.65-11.98 505.17-12.8 508.42-13.6L508.42-13.6Q508.32-15.55 507.62-16.75 506.92-17.95 505.97-18.63 505.02-19.3 503.97-19.53 502.92-19.75 502.17-19.75L502.17-19.75Q500.87-19.75 499.9-19.35 498.92-18.95 498.2-18.32 497.47-17.7 496.97-16.98 496.47-16.25 496.17-15.6L496.17-15.6 495.72-15.6 495.72-19.25Q496.12-19.3 496.47-19.5 496.82-19.7 497.32-19.9L497.32-19.9Q498.07-20.2 499.37-20.78 500.67-21.35 503.02-21.35L503.02-21.35Q505.77-21.35 507.47-20.65 509.17-19.95 510.1-18.8 511.02-17.65 511.32-16.18 511.62-14.7 511.62-13.15L511.62-13.15 511.62-3.25Q511.62-2.25 512.07-1.38 512.52-0.5 513.27-0.5L513.27-0.5 513.27 0ZM507.87-4.15L508.42-4.75 508.42-11.9 507.92-11.8Q506.72-11.5 505-11 503.27-10.5 501.72-9.7 500.17-8.9 499.07-7.8 497.97-6.7 497.97-5.25L497.97-5.25Q497.97-3.65 499.27-2.6 500.57-1.55 502.67-1.55L502.67-1.55Q504.32-1.55 505.57-2.27 506.82-3 507.87-4.15L507.87-4.15ZM557.38-5.7L557.38-5.7Q557.38-4.4 556.73-3.3 556.08-2.2 554.95-1.38 553.83-0.55 552.33-0.08 550.83 0.4 549.08 0.4L549.08 0.4Q546.93 0.4 545.58-0.18 544.23-0.75 543.28-1.35L543.28-1.35Q542.63-1.75 542.08-2.02 541.53-2.3 540.88-2.3L540.88-2.3 540.88-6.1 541.38-6.1Q541.53-5.4 542.25-4.58 542.98-3.75 544-3.05 545.03-2.35 546.25-1.88 547.48-1.4 548.73-1.4L548.73-1.4Q549.63-1.4 550.58-1.6 551.53-1.8 552.3-2.25 553.08-2.7 553.6-3.38 554.13-4.05 554.13-5L554.13-5Q554.13-5.95 553.58-6.65 553.03-7.35 552.18-7.88 551.33-8.4 550.23-8.8 549.13-9.2 548.03-9.55L548.03-9.55Q546.73-9.95 545.4-10.45 544.08-10.95 543.03-11.63 541.98-12.3 541.33-13.28 540.68-14.25 540.68-15.6L540.68-15.6Q540.68-16.75 541.1-17.8 541.53-18.85 542.5-19.63 543.48-20.4 545.03-20.88 546.58-21.35 548.78-21.35L548.78-21.35Q550.73-21.35 551.8-21.03 552.88-20.7 553.58-20.35L553.58-20.35Q554.03-20.1 554.48-19.98 554.93-19.85 555.48-19.85L555.48-19.85 555.48-16.35 555.08-16.35Q554.18-18 552.33-18.85 550.48-19.7 548.53-19.7L548.53-19.7Q547.28-19.7 546.38-19.38 545.48-19.05 544.9-18.57 544.33-18.1 544.05-17.5 543.78-16.9 543.78-16.3L543.78-16.3Q543.78-15.45 544.25-14.85 544.73-14.25 545.55-13.8 546.38-13.35 547.4-12.95 548.43-12.55 549.58-12.2L549.58-12.2Q550.98-11.75 552.38-11.23 553.78-10.7 554.88-9.95 555.98-9.2 556.68-8.18 557.38-7.15 557.38-5.7ZM600.98-5.7L600.98-5.7Q600.98-4.4 600.33-3.3 599.68-2.2 598.56-1.38 597.43-0.55 595.93-0.08 594.43 0.4 592.68 0.4L592.68 0.4Q590.53 0.4 589.18-0.18 587.83-0.75 586.88-1.35L586.88-1.35Q586.23-1.75 585.68-2.02 585.13-2.3 584.48-2.3L584.48-2.3 584.48-6.1 584.98-6.1Q585.13-5.4 585.86-4.58 586.58-3.75 587.61-3.05 588.63-2.35 589.86-1.88 591.08-1.4 592.33-1.4L592.33-1.4Q593.23-1.4 594.18-1.6 595.13-1.8 595.91-2.25 596.68-2.7 597.21-3.38 597.73-4.05 597.73-5L597.73-5Q597.73-5.95 597.18-6.65 596.63-7.35 595.78-7.88 594.93-8.4 593.83-8.8 592.73-9.2 591.63-9.55L591.63-9.55Q590.33-9.95 589.01-10.45 587.68-10.95 586.63-11.63 585.58-12.3 584.93-13.28 584.28-14.25 584.28-15.6L584.28-15.6Q584.28-16.75 584.71-17.8 585.13-18.85 586.11-19.63 587.08-20.4 588.63-20.88 590.18-21.35 592.38-21.35L592.38-21.35Q594.33-21.35 595.41-21.03 596.48-20.7 597.18-20.35L597.18-20.35Q597.63-20.1 598.08-19.98 598.53-19.85 599.08-19.85L599.08-19.85 599.08-16.35 598.68-16.35Q597.78-18 595.93-18.85 594.08-19.7 592.13-19.7L592.13-19.7Q590.88-19.7 589.98-19.38 589.08-19.05 588.51-18.57 587.93-18.1 587.66-17.5 587.38-16.9 587.38-16.3L587.38-16.3Q587.38-15.45 587.86-14.85 588.33-14.25 589.16-13.8 589.98-13.35 591.01-12.95 592.03-12.55 593.18-12.2L593.18-12.2Q594.58-11.75 595.98-11.23 597.38-10.7 598.48-9.95 599.58-9.2 600.28-8.18 600.98-7.15 600.98-5.7ZM635.54 0L629.04 0 629.04-0.5Q629.44-0.5 629.74-0.8 630.04-1.1 630.24-1.5 630.44-1.9 630.54-2.38 630.64-2.85 630.64-3.25L630.64-3.25 630.64-17.1Q630.64-17.95 630.39-18.73 630.14-19.5 628.94-19.55L628.94-19.55 628.94-20 633.94-21.6 633.94-3.25Q633.94-2.85 634.04-2.38 634.14-1.9 634.34-1.5 634.54-1.1 634.84-0.8 635.14-0.5 635.54-0.5L635.54-0.5 635.54 0ZM629.29-26.4L629.29-26.4Q629.29-27.4 629.96-28.1 630.64-28.8 631.64-28.8L631.64-28.8Q632.64-28.8 633.34-28.1 634.04-27.4 634.04-26.4L634.04-26.4Q634.04-25.4 633.34-24.75 632.64-24.1 631.64-24.1L631.64-24.1Q630.64-24.1 629.96-24.75 629.29-25.4 629.29-26.4ZM674.45 0.35L674.45 0.35Q671.95 0.35 669.95-0.48 667.95-1.3 666.52-2.73 665.1-4.15 664.32-6.1 663.55-8.05 663.55-10.35L663.55-10.35Q663.55-12.8 664.4-14.83 665.25-16.85 666.75-18.3 668.25-19.75 670.3-20.55 672.35-21.35 674.75-21.35L674.75-21.35Q677.15-21.35 679.15-20.58 681.15-19.8 682.6-18.4 684.05-17 684.85-15.08 685.65-13.15 685.65-10.85L685.65-10.85Q685.65-8.7 684.92-6.68 684.2-4.65 682.77-3.1 681.35-1.55 679.27-0.6 677.2 0.35 674.45 0.35ZM674.15-19.7L674.15-19.7Q672.35-19.6 670.97-18.82 669.6-18.05 668.67-16.82 667.75-15.6 667.27-14.05 666.8-12.5 666.8-10.9L666.8-10.9Q666.8-9.05 667.37-7.33 667.95-5.6 669.02-4.25 670.1-2.9 671.6-2.1 673.1-1.3 674.95-1.3L674.95-1.3Q676.8-1.3 678.22-2.1 679.65-2.9 680.6-4.17 681.55-5.45 682.02-7.05 682.5-8.65 682.5-10.25L682.5-10.25Q682.5-11.9 682-13.58 681.5-15.25 680.45-16.63 679.4-18 677.82-18.85 676.25-19.7 674.15-19.7ZM733.25-12.9L733.25-3.25Q733.25-2.85 733.35-2.38 733.45-1.9 733.68-1.5 733.9-1.1 734.18-0.8 734.45-0.5 734.85-0.5L734.85-0.5 734.85 0 728.4 0 728.4-0.5Q728.75-0.5 729.05-0.8 729.35-1.1 729.58-1.5 729.8-1.9 729.9-2.38 730-2.85 730-3.25L730-3.25 730-12.55Q730-14.35 729.5-15.7 729-17.05 728.15-17.95 727.3-18.85 726.23-19.28 725.15-19.7 724.05-19.7L724.05-19.7Q722.95-19.7 721.88-19.25 720.8-18.8 719.98-18.07 719.15-17.35 718.63-16.38 718.1-15.4 718.1-14.35L718.1-14.35 718.1-3.25Q718.1-2.85 718.2-2.38 718.3-1.9 718.53-1.5 718.75-1.1 719.03-0.8 719.3-0.5 719.7-0.5L719.7-0.5 719.7 0 713.2 0 713.2-0.5Q713.55-0.5 713.85-0.8 714.15-1.1 714.38-1.5 714.6-1.9 714.7-2.38 714.8-2.85 714.8-3.25L714.8-3.25 714.8-17.05Q714.8-17.9 714.55-18.68 714.3-19.45 713.1-19.5L713.1-19.5 713.1-19.95 718.1-21.55 718.1-18.8Q718.45-19.2 719-19.68 719.55-20.15 720.33-20.58 721.1-21 722.13-21.28 723.15-21.55 724.55-21.55L724.55-21.55Q726.9-21.55 728.55-20.75 730.2-19.95 731.25-18.68 732.3-17.4 732.78-15.88 733.25-14.35 733.25-12.9L733.25-12.9Z" opacity="1" transform="matrix(1,0,0,1,0,0)" fill="white" class="slogan-text-1" id="SvgjsPath1785"></path></svg></g></svg></g></svg></g></svg></g><g transform="matrix(1,0,0,1,63.44764471166698,0)"><svg viewBox="0 0 65.10471057666604 43.65577798854439" height="43.65577798854439" width="65.10471057666604"><g><svg xmlns="http://www.w3.org/2000/svg" xmlns:xlink="http://www.w3.org/1999/xlink" version="1.1" x="0" y="0" viewBox="2.2 15.4 85.9 57.6" enable-background="new 0 0 90 90" xml:space="preserve" height="43.65577798854439" width="65.10471057666604" class="icon-icon-0" data-fill-palette-color="accent" id="SvgjsSvg1784"></svg></g></svg></g><g></g></svg></g></svg></g></svg></g></svg></g><defs><mask></mask></defs><mask><g id="SvgjsG1783"><svg viewBox="0 0 320 360" height="360" width="320"><g><svg></svg></g><g><svg viewBox="0 0 320 360" height="360" width="320"><g></g><g transform="matrix(1,0,0,1,64,140.93352095585405)"><svg viewBox="0 0 192 78.13295808829191" height="78.13295808829191" width="192"><g><svg viewBox="0 0 192 78.13295808829191" height="78.13295808829191" width="192"><g><svg viewBox="0 0 192 78.13295808829191" height="78.13295808829191" width="192"><g transform="matrix(1,0,0,1,0,46.54411728616138)"><svg viewBox="0 0 192 31.58884080213053" height="31.58884080213053" width="192"><g id="SvgjsG1782"><svg viewBox="0 0 192 31.58884080213053" height="31.58884080213053" width="192" id="SvgjsSvg1781"><g><svg viewBox="0 0 192 19.793449313457614" height="19.793449313457614" width="192"><g transform="matrix(1,0,0,1,0,0)"><svg width="192" viewBox="1.95 -34.08 438.08 45.161718691651004" height="19.793449313457614" data-palette-color="url(#9033fa86-92a7-42e3-841a-a5db1a108712)"></svg></g></svg></g><g transform="matrix(1,0,0,1,0,22.6817886110746)"><svg viewBox="0 0 192 8.907052191055927" height="8.907052191055927" width="192"><g transform="matrix(1,0,0,1,0,0)"><svg width="192" viewBox="1.9499999999999997 -33.5 732.9 34" height="8.907052191055927" data-palette-color="url(#2ac423a3-6c59-4f5d-bf6e-7172c8c2a699)"></svg></g></svg></g></svg></g></svg></g><g transform="matrix(1,0,0,1,63.44764471166698,0)"><svg viewBox="0 0 65.10471057666604 43.65577798854439" height="43.65577798854439" width="65.10471057666604"><g><svg xmlns="http://www.w3.org/2000/svg" xmlns:xlink="http://www.w3.org/1999/xlink" version="1.1" x="0" y="0" viewBox="2.2 15.4 85.9 57.6" enable-background="new 0 0 90 90" xml:space="preserve" height="43.65577798854439" width="65.10471057666604" class="icon-icon-0" data-fill-palette-color="accent" id="SvgjsSvg1779"></svg></g></svg></g><g></g></svg></g></svg></g></svg></g></svg></g><defs><mask></mask></defs></svg></g></mask></svg></g></mask><linearGradient x1="0.054" x2="0.941" y1="0.5" y2="0.5" id="2ac423a3-6c59-4f5d-bf6e-7172c8c2a699"><stop stop-color="#0f3054" offset="0"></stop><stop stop-color="#3b8dcb" offset="0.498"></stop><stop stop-color="#0f3054" offset="1"></stop></linearGradient><rect width="320.000094" height="360" fill="url(#2ac423a3-6c59-4f5d-bf6e-7172c8c2a699)" mask="url(#6fc9c531-2cd5-4779-b51e-0d5f701eae0c)" data-fill-palette-color="secondary"></rect><mask id="01b8466e-cfd7-48b5-9295-cfd1dce8a781"><g id="SvgjsG1806"><svg viewBox="0 0 320 360" height="360" width="320"><g><svg></svg></g><g><svg viewBox="0 0 320 360" height="360" width="320"><g></g><g transform="matrix(1,0,0,1,64,140.93352095585405)"><svg viewBox="0 0 192 78.13295808829191" height="78.13295808829191" width="192"><g><svg viewBox="0 0 192 78.13295808829191" height="78.13295808829191" width="192"><g><svg viewBox="0 0 192 78.13295808829191" height="78.13295808829191" width="192"><g transform="matrix(1,0,0,1,0,46.54411728616138)"><svg viewBox="0 0 192 31.58884080213053" height="31.58884080213053" width="192"><g id="SvgjsG1805"><svg viewBox="0 0 192 31.58884080213053" height="31.58884080213053" width="192" id="SvgjsSvg1804"><g><svg viewBox="0 0 192 19.793449313457614" height="19.793449313457614" width="192"><g transform="matrix(1,0,0,1,0,0)"><svg width="192" viewBox="1.95 -34.08 438.08 45.161718691651004" height="19.793449313457614" data-palette-color="url(#9033fa86-92a7-42e3-841a-a5db1a108712)"></svg></g></svg></g><g transform="matrix(1,0,0,1,0,22.6817886110746)"><svg viewBox="0 0 192 8.907052191055927" height="8.907052191055927" width="192"><g transform="matrix(1,0,0,1,0,0)"><svg width="192" viewBox="1.9499999999999997 -33.5 732.9 34" height="8.907052191055927" data-palette-color="url(#2ac423a3-6c59-4f5d-bf6e-7172c8c2a699)"></svg></g></svg></g></svg></g></svg></g><g transform="matrix(1,0,0,1,63.44764471166698,0)"><svg viewBox="0 0 65.10471057666604 43.65577798854439" height="43.65577798854439" width="65.10471057666604"><g><svg xmlns="http://www.w3.org/2000/svg" xmlns:xlink="http://www.w3.org/1999/xlink" version="1.1" x="0" y="0" viewBox="2.2 15.4 85.9 57.6" enable-background="new 0 0 90 90" xml:space="preserve" height="43.65577798854439" width="65.10471057666604" class="icon-icon-0" data-fill-palette-color="accent" id="SvgjsSvg1803"><g fill="white"><path d="M6.6 25c0 1.4 1.1 2.5 2.5 2.5s2.5-1.1 2.5-2.5-1.1-2.5-2.5-2.5S6.6 23.6 6.6 25zM10.7 25c0 0.9-0.7 1.6-1.6 1.6-0.9 0-1.6-0.7-1.6-1.6 0-0.9 0.7-1.6 1.6-1.6C10 23.4 10.7 24.1 10.7 25z" fill="white"></path><path d="M64.3 27.8H17.2v14.1h47.1V27.8zM63.4 41H18.1V28.7h45.3V41z" fill="white"></path><path d="M17.2 53.3H30v-9.7H17.2V53.3zM18.1 44.5h10.9v7.9H18.1V44.5z" fill="white"></path><rect x="32.9" y="44.2" width="31" height="0.9" fill="white"></rect><rect x="32.9" y="46.6" width="31" height="0.9" fill="white"></rect><rect x="32.9" y="49.1" width="31" height="0.9" fill="white"></rect><rect x="32.9" y="51.6" width="18" height="0.9" fill="white"></rect><rect x="27.8" y="70.5" width="26.1" height="2.5" fill="white"></rect><path d="M4.1 20.5h73.5v10.9h1.8V20.5c0-2.8-2.3-5.1-5.1-5.1H7.3c-2.8 0-5.1 2.3-5.1 5.1v38c0 2.8 2.3 5.1 5.1 5.1h24.1L31 69.4h1.8l0.5-5.8h15.1l0.5 5.8h1.8l-0.5-5.8h15.9v-6H4.1V20.5z" fill="white"></path><path d="M82.2 32.3h-9.2c-3.3 0-5.9 2.7-5.9 5.9v28.1c0 3.3 2.7 5.9 5.9 5.9h9.2c3.3 0 5.9-2.7 5.9-5.9V38.2C88.1 35 85.4 32.3 82.2 32.3zM68.2 64.8V38.6h18.7v26.2H68.2zM75.9 35.2h3.3c0.3 0 0.6 0.3 0.6 0.6s-0.3 0.6-0.6 0.6h-3.3c-0.3 0-0.6-0.3-0.6-0.6S75.5 35.2 75.9 35.2zM79.3 68c0 0.7-0.6 1.3-1.3 1.3h-0.7c-0.7 0-1.3-0.6-1.3-1.3V68c0-0.7 0.6-1.3 1.3-1.3h0.7C78.6 66.6 79.3 67.2 79.3 68L79.3 68z" fill="white"></path><path d="M68.9 49.9h17.2v-6.7H68.9V49.9zM69.7 44h15.5v5H69.7V44z" fill="white"></path><path d="M77.2 50.3h-8.4V57h8.4V50.3zM76.4 56.2h-6.6v-5h6.6V56.2z" fill="white"></path><path d="M77.7 57h8.4v-6.7h-8.4V57zM78.6 51.2h6.6v5h-6.6V51.2z" fill="white"></path><path d="M77.4 42.6c1 0 1.8-0.8 1.8-1.8S78.3 39 77.4 39s-1.8 0.8-1.8 1.8S76.4 42.6 77.4 42.6zM77.4 39.9c0.5 0 0.9 0.4 0.9 0.9s-0.4 0.9-0.9 0.9-0.9-0.4-0.9-0.9S76.8 39.9 77.4 39.9z" fill="white"></path><rect x="68.9" y="57.9" width="17.2" height="0.9" fill="white"></rect><rect x="68.9" y="59.6" width="17.2" height="0.9" fill="white"></rect><rect x="68.9" y="61.2" width="17.2" height="0.9" fill="white"></rect><rect x="68.9" y="62.8" width="10.1" height="0.9" fill="white"></rect></g></svg></g></svg></g><g></g></svg></g></svg></g></svg></g></svg></g><defs><mask></mask></defs><mask><g id="SvgjsG1802"><svg viewBox="0 0 320 360" height="360" width="320"><g><svg></svg></g><g><svg viewBox="0 0 320 360" height="360" width="320"><g></g><g transform="matrix(1,0,0,1,64,140.93352095585405)"><svg viewBox="0 0 192 78.13295808829191" height="78.13295808829191" width="192"><g><svg viewBox="0 0 192 78.13295808829191" height="78.13295808829191" width="192"><g><svg viewBox="0 0 192 78.13295808829191" height="78.13295808829191" width="192"><g transform="matrix(1,0,0,1,0,46.54411728616138)"><svg viewBox="0 0 192 31.58884080213053" height="31.58884080213053" width="192"><g id="SvgjsG1801"><svg viewBox="0 0 192 31.58884080213053" height="31.58884080213053" width="192" id="SvgjsSvg1800"><g><svg viewBox="0 0 192 19.793449313457614" height="19.793449313457614" width="192"><g transform="matrix(1,0,0,1,0,0)"><svg width="192" viewBox="1.95 -34.08 438.08 45.161718691651004" height="19.793449313457614" data-palette-color="url(#9033fa86-92a7-42e3-841a-a5db1a108712)"></svg></g></svg></g><g transform="matrix(1,0,0,1,0,22.6817886110746)"><svg viewBox="0 0 192 8.907052191055927" height="8.907052191055927" width="192"><g transform="matrix(1,0,0,1,0,0)"><svg width="192" viewBox="1.9499999999999997 -33.5 732.9 34" height="8.907052191055927" data-palette-color="url(#2ac423a3-6c59-4f5d-bf6e-7172c8c2a699)"></svg></g></svg></g></svg></g></svg></g><g transform="matrix(1,0,0,1,63.44764471166698,0)"><svg viewBox="0 0 65.10471057666604 43.65577798854439" height="43.65577798854439" width="65.10471057666604"><g><svg xmlns="http://www.w3.org/2000/svg" xmlns:xlink="http://www.w3.org/1999/xlink" version="1.1" x="0" y="0" viewBox="2.2 15.4 85.9 57.6" enable-background="new 0 0 90 90" xml:space="preserve" height="43.65577798854439" width="65.10471057666604" class="icon-icon-0" data-fill-palette-color="accent" id="SvgjsSvg1798"></svg></g></svg></g><g></g></svg></g></svg></g></svg></g></svg></g><defs><mask></mask></defs></svg></g></mask><mask><g id="SvgjsG1797"><svg viewBox="0 0 320 360" height="360" width="320"><g><svg></svg></g><g><svg viewBox="0 0 320 360" height="360" width="320"><g></g><g transform="matrix(1,0,0,1,64,140.93352095585405)"><svg viewBox="0 0 192 78.13295808829191" height="78.13295808829191" width="192"><g><svg viewBox="0 0 192 78.13295808829191" height="78.13295808829191" width="192"><g><svg viewBox="0 0 192 78.13295808829191" height="78.13295808829191" width="192"><g transform="matrix(1,0,0,1,0,46.54411728616138)"><svg viewBox="0 0 192 31.58884080213053" height="31.58884080213053" width="192"><g id="SvgjsG1796"><svg viewBox="0 0 192 31.58884080213053" height="31.58884080213053" width="192" id="SvgjsSvg1795"><g><svg viewBox="0 0 192 19.793449313457614" height="19.793449313457614" width="192"><g transform="matrix(1,0,0,1,0,0)"><svg width="192" viewBox="1.95 -34.08 438.08 45.161718691651004" height="19.793449313457614" data-palette-color="url(#9033fa86-92a7-42e3-841a-a5db1a108712)"></svg></g></svg></g><g transform="matrix(1,0,0,1,0,22.6817886110746)"><svg viewBox="0 0 192 8.907052191055927" height="8.907052191055927" width="192"><g transform="matrix(1,0,0,1,0,0)"><svg width="192" viewBox="1.9499999999999997 -33.5 732.9 34" height="8.907052191055927" data-palette-color="url(#2ac423a3-6c59-4f5d-bf6e-7172c8c2a699)"></svg></g></svg></g></svg></g></svg></g><g transform="matrix(1,0,0,1,63.44764471166698,0)"><svg viewBox="0 0 65.10471057666604 43.65577798854439" height="43.65577798854439" width="65.10471057666604"><g><svg xmlns="http://www.w3.org/2000/svg" xmlns:xlink="http://www.w3.org/1999/xlink" version="1.1" x="0" y="0" viewBox="2.2 15.4 85.9 57.6" enable-background="new 0 0 90 90" xml:space="preserve" height="43.65577798854439" width="65.10471057666604" class="icon-icon-0" data-fill-palette-color="accent" id="SvgjsSvg1793"></svg></g></svg></g><g></g></svg></g></svg></g></svg></g></svg></g><defs><mask></mask></defs><mask><g id="SvgjsG1792"><svg viewBox="0 0 320 360" height="360" width="320"><g><svg></svg></g><g><svg viewBox="0 0 320 360" height="360" width="320"><g></g><g transform="matrix(1,0,0,1,64,140.93352095585405)"><svg viewBox="0 0 192 78.13295808829191" height="78.13295808829191" width="192"><g><svg viewBox="0 0 192 78.13295808829191" height="78.13295808829191" width="192"><g><svg viewBox="0 0 192 78.13295808829191" height="78.13295808829191" width="192"><g transform="matrix(1,0,0,1,0,46.54411728616138)"><svg viewBox="0 0 192 31.58884080213053" height="31.58884080213053" width="192"><g id="SvgjsG1791"><svg viewBox="0 0 192 31.58884080213053" height="31.58884080213053" width="192" id="SvgjsSvg1790"><g><svg viewBox="0 0 192 19.793449313457614" height="19.793449313457614" width="192"><g transform="matrix(1,0,0,1,0,0)"><svg width="192" viewBox="1.95 -34.08 438.08 45.161718691651004" height="19.793449313457614" data-palette-color="url(#9033fa86-92a7-42e3-841a-a5db1a108712)"></svg></g></svg></g><g transform="matrix(1,0,0,1,0,22.6817886110746)"><svg viewBox="0 0 192 8.907052191055927" height="8.907052191055927" width="192"><g transform="matrix(1,0,0,1,0,0)"><svg width="192" viewBox="1.9499999999999997 -33.5 732.9 34" height="8.907052191055927" data-palette-color="url(#2ac423a3-6c59-4f5d-bf6e-7172c8c2a699)"></svg></g></svg></g></svg></g></svg></g><g transform="matrix(1,0,0,1,63.44764471166698,0)"><svg viewBox="0 0 65.10471057666604 43.65577798854439" height="43.65577798854439" width="65.10471057666604"><g><svg xmlns="http://www.w3.org/2000/svg" xmlns:xlink="http://www.w3.org/1999/xlink" version="1.1" x="0" y="0" viewBox="2.2 15.4 85.9 57.6" enable-background="new 0 0 90 90" xml:space="preserve" height="43.65577798854439" width="65.10471057666604" class="icon-icon-0" data-fill-palette-color="accent" id="SvgjsSvg1789"></svg></g></svg></g><g></g></svg></g></svg></g></svg></g></svg></g><defs><mask></mask></defs></svg></g></mask></svg></g></mask></svg></g></mask><linearGradient x1="0.054" x2="0.941" y1="0.5" y2="0.5" id="7d70b972-bd7a-4173-971d-a50760e51fd1"><stop stop-color="#0f3054" offset="0"></stop><stop stop-color="#3b8dcb" offset="0.498"></stop><stop stop-color="#0f3054" offset="1"></stop></linearGradient><rect width="320.000141" height="360" fill="url(#7d70b972-bd7a-4173-971d-a50760e51fd1)" mask="url(#01b8466e-cfd7-48b5-9295-cfd1dce8a781)" data-fill-palette-color="accent"></rect><mask id="d6f9c0e1-5dca-47b1-b312-3cc0b982303b"><g id="SvgjsG1840"><svg viewBox="0 0 320 360" height="360" width="320"><g><svg></svg></g><g><svg viewBox="0 0 320 360" height="360" width="320"><g><path transform="translate(-74.99272,-51.79039) scale(4.65793,4.65793)" d="M20.6 59.9l0.8 1-0.4-1.3c-0.1-0.6-0.8 0.1-0.4 0.3M21.5 59.3c0.3 0.5 0.6 1 0.6 1.5 0 0.7 0.6 1 1.1 1.2-0.7-0.8-1.1-3-1.7-2.7M59.9 16.9c1.7 0 3.3-0.2 5.1 0.2 4.4 1.1 8.1 3.3 10.6 6.4l7 11.2c0.3 2.8 0.9 5.9 0.8 9.3 0.7 0 0.6-1 1.4-1.2-0.8 2-1.2 4.5-1.4 7.4-0.5-1.6 0-4 0.1-5.3-0.7 1.1-1.1 0.3-1.1-0.2 0.1-0.8-0.3-0.7-0.6-1-1.1-1-1.8-2.1-2.6-3.8 0.5-1.3 0.6-3.2-1-4.2-0.5-0.3-1.1-0.8-1.4-1.6-0.4-1.1-1.1-2.4-0.9-4.1 0.1-0.5-1.5 1.1-2.4 0.4-3.9-2.7-7.8-5.8-12.5-8.4-2.5 0-4.3-0.9-5.2-2-0.8-1-0.2-2.3 1-2.4 0.7 0 1.5-0.2 2.1 0.2 0.1-0.4 0.5-0.9 1-0.9M50 14.6l0.2 0.1c1 0.2 1.5 1.6 2.6 1.1 0 0.7 0.1 1.4-0.1 1.9-0.3 0.8-1.2 0.8-1.9 0.8-6.7-0.4-10.6 2.4-14.7 4.8-1.1 0.7-2.3 1.2-3.2 2.1-4.3 4-9 7.7-10.1 15.1l-0.9 8.2c-0.1 0.9-1.1 1.8-0.9 2.9l0.7 4.9c-0.7-0.7-1.1 0.2-0.9 0.6 0.1 0.3 0.5 1.3 1.1 0.4 0.8 1.5 1.6 4.4 2.7 5.7 3.4 4 7.8 7.6 11.4 11.2 0.9-0.2 1.6-0.2 1.8-0.8 0.3 0.6-0.3 1.2-0.8 1.3 1.6 1 3.4 1.9 5.8 2.1 3.1 0.2 6 0.7 8.7 1.4 1.4-0.4 2.8-0.6 4.3-0.7 0.5 0 0.8-0.8 1.4-1l0.1-1c0.6 0.9 0.5-0.3 0.1-0.9 0.7 0.6 0.9 1.1 1.2 1.5 0-0.3 0.8-1.4 0.8-0.1l0.2-1.3c0.3-0.2 0.4 1.1 0.7 0.2 0.3-0.9 0.9-0.2 1.5-0.5-0.2 0.4-0.1 1.2 0.6 0.7l0.8-0.7c0.5 1.2 1.3 0.7 1.7 0.5 4.4-2.8 8.8-6.1 13-9.4l-0.1 1.3 0.5-1.6c0.5 0.5 0.9 0.1 1.1-0.2 0.6-1 1.4-2 2.7-2.9-1.6 4.3-3.5 7.7-5.9 10.5l-1 1.2c0 0.7-0.2 1.6-1 1.7-0.4 0.1-1.2-0.2-1.8 0.4-0.3 0.4 0.7 1.2-0.1 0.6-0.7-0.5-1.4 0-2.2 0.2-0.6 0.2 0.4 0.8 0.6 1.2 0.2 0.4 0.4 0.8 0.3 1.3l-1.1-1.2c-1.3 0.7-2.1 2-3.2 3-0.5 0.4-0.3 1.1-0.3 1.7-0.7 0-1.5-0.2-1.9 0.2-0.3 0.4-0.2 1-0.2 1.6-1-0.1-1.1-1.6-2-1.3-0.9 0.2-1.9 0.3-2.7 0.8 0.6 1.2-1 0.5-0.8 0.7-1.5-0.9-2.8-1.6-4.4-1-3.4-1.1-7.6-0.6-10.7-0.2 0-0.5 0.1-1-0.1-1.1-0.2 0.5-0.8 0.3-0.7 0.3-1.9-1.3-3.8-2.1-5.8-3.2-1.8 0.2-3.5-0.7-4-1.2-1.4-1.3-3-0.6-4.3-0.9-2.8-0.7-3.8-3.6-4.1-5.6-0.2-1-1-1.4-1.3-1.3-1.3-4.2-3.3-8-4.9-11.9-0.4-1-0.3-2-0.3-3.1 0.5 0.2 1 0.1 0.9-0.6-0.5-3.3-1.7-5.8-3-8.2 0.7-3.4 0.8-7.4 2.4-10.4 1.4-2.7 4-4.1 5.8-6.4 0.6-0.8 0.6-1.9 1.2-2.6 2-2 4-4.1 6.2-5.9 1-0.8 2.2 0 3.7-0.3 0.5-1.8 2.5-3.4 4.4-2.9 0.8 0.2 2.4-1.9 2.9-2.1 0.8-0.3 0.4 0.8 0.4 1.5 1.9-1.5 4.5-2.3 6.9-3.2" fill="white" fill-rule="nonzero" stroke="none" stroke-width="1" stroke-linecap="butt" stroke-linejoin="miter" stroke-miterlimit="10" stroke-dasharray="" stroke-dashoffset="0" font-family="none" font-weight="none" font-size="none" text-anchor="none" style="mix-blend-mode: normal"></path></g><g transform="matrix(1,0,0,1,64,140.93352095585405)"><svg viewBox="0 0 192 78.13295808829191" height="78.13295808829191" width="192"><g><svg viewBox="0 0 192 78.13295808829191" height="78.13295808829191" width="192"><g><svg viewBox="0 0 192 78.13295808829191" height="78.13295808829191" width="192"><g transform="matrix(1,0,0,1,0,46.54411728616138)"><svg viewBox="0 0 192 31.58884080213053" height="31.58884080213053" width="192"><g id="SvgjsG1839"><svg viewBox="0 0 192 31.58884080213053" height="31.58884080213053" width="192" id="SvgjsSvg1838"><g><svg viewBox="0 0 192 19.793449313457614" height="19.793449313457614" width="192"><g transform="matrix(1,0,0,1,0,0)"><svg width="192" viewBox="1.95 -34.08 438.08 45.161718691651004" height="19.793449313457614" data-palette-color="url(#9033fa86-92a7-42e3-841a-a5db1a108712)"></svg></g></svg></g><g transform="matrix(1,0,0,1,0,22.6817886110746)"><svg viewBox="0 0 192 8.907052191055927" height="8.907052191055927" width="192"><g transform="matrix(1,0,0,1,0,0)"><svg width="192" viewBox="1.9499999999999997 -33.5 732.9 34" height="8.907052191055927" data-palette-color="url(#2ac423a3-6c59-4f5d-bf6e-7172c8c2a699)"></svg></g></svg></g></svg></g></svg></g><g transform="matrix(1,0,0,1,63.44764471166698,0)"><svg viewBox="0 0 65.10471057666604 43.65577798854439" height="43.65577798854439" width="65.10471057666604"><g><svg xmlns="http://www.w3.org/2000/svg" xmlns:xlink="http://www.w3.org/1999/xlink" version="1.1" x="0" y="0" viewBox="2.2 15.4 85.9 57.6" enable-background="new 0 0 90 90" xml:space="preserve" height="43.65577798854439" width="65.10471057666604" class="icon-icon-0" data-fill-palette-color="accent" id="SvgjsSvg1837"></svg></g></svg></g><g></g></svg></g></svg></g></svg></g></svg></g><defs><mask></mask></defs><mask><g id="SvgjsG1836"><svg viewBox="0 0 320 360" height="360" width="320"><g><svg></svg></g><g><svg viewBox="0 0 320 360" height="360" width="320"><g></g><g transform="matrix(1,0,0,1,64,140.93352095585405)"><svg viewBox="0 0 192 78.13295808829191" height="78.13295808829191" width="192"><g><svg viewBox="0 0 192 78.13295808829191" height="78.13295808829191" width="192"><g><svg viewBox="0 0 192 78.13295808829191" height="78.13295808829191" width="192"><g transform="matrix(1,0,0,1,0,46.54411728616138)"><svg viewBox="0 0 192 31.58884080213053" height="31.58884080213053" width="192"><g id="SvgjsG1835"><svg viewBox="0 0 192 31.58884080213053" height="31.58884080213053" width="192" id="SvgjsSvg1834"><g><svg viewBox="0 0 192 19.793449313457614" height="19.793449313457614" width="192"><g transform="matrix(1,0,0,1,0,0)"><svg width="192" viewBox="1.95 -34.08 438.08 45.161718691651004" height="19.793449313457614" data-palette-color="url(#9033fa86-92a7-42e3-841a-a5db1a108712)"></svg></g></svg></g><g transform="matrix(1,0,0,1,0,22.6817886110746)"><svg viewBox="0 0 192 8.907052191055927" height="8.907052191055927" width="192"><g transform="matrix(1,0,0,1,0,0)"><svg width="192" viewBox="1.9499999999999997 -33.5 732.9 34" height="8.907052191055927" data-palette-color="url(#2ac423a3-6c59-4f5d-bf6e-7172c8c2a699)"></svg></g></svg></g></svg></g></svg></g><g transform="matrix(1,0,0,1,63.44764471166698,0)"><svg viewBox="0 0 65.10471057666604 43.65577798854439" height="43.65577798854439" width="65.10471057666604"><g><svg xmlns="http://www.w3.org/2000/svg" xmlns:xlink="http://www.w3.org/1999/xlink" version="1.1" x="0" y="0" viewBox="2.2 15.4 85.9 57.6" enable-background="new 0 0 90 90" xml:space="preserve" height="43.65577798854439" width="65.10471057666604" class="icon-icon-0" data-fill-palette-color="accent" id="SvgjsSvg1832"></svg></g></svg></g><g></g></svg></g></svg></g></svg></g></svg></g><defs><mask></mask></defs></svg></g></mask><mask><g id="SvgjsG1831"><svg viewBox="0 0 320 360" height="360" width="320"><g><svg></svg></g><g><svg viewBox="0 0 320 360" height="360" width="320"><g></g><g transform="matrix(1,0,0,1,64,140.93352095585405)"><svg viewBox="0 0 192 78.13295808829191" height="78.13295808829191" width="192"><g><svg viewBox="0 0 192 78.13295808829191" height="78.13295808829191" width="192"><g><svg viewBox="0 0 192 78.13295808829191" height="78.13295808829191" width="192"><g transform="matrix(1,0,0,1,0,46.54411728616138)"><svg viewBox="0 0 192 31.58884080213053" height="31.58884080213053" width="192"><g id="SvgjsG1830"><svg viewBox="0 0 192 31.58884080213053" height="31.58884080213053" width="192" id="SvgjsSvg1829"><g><svg viewBox="0 0 192 19.793449313457614" height="19.793449313457614" width="192"><g transform="matrix(1,0,0,1,0,0)"><svg width="192" viewBox="1.95 -34.08 438.08 45.161718691651004" height="19.793449313457614" data-palette-color="url(#9033fa86-92a7-42e3-841a-a5db1a108712)"></svg></g></svg></g><g transform="matrix(1,0,0,1,0,22.6817886110746)"><svg viewBox="0 0 192 8.907052191055927" height="8.907052191055927" width="192"><g transform="matrix(1,0,0,1,0,0)"><svg width="192" viewBox="1.9499999999999997 -33.5 732.9 34" height="8.907052191055927" data-palette-color="url(#2ac423a3-6c59-4f5d-bf6e-7172c8c2a699)"></svg></g></svg></g></svg></g></svg></g><g transform="matrix(1,0,0,1,63.44764471166698,0)"><svg viewBox="0 0 65.10471057666604 43.65577798854439" height="43.65577798854439" width="65.10471057666604"><g><svg xmlns="http://www.w3.org/2000/svg" xmlns:xlink="http://www.w3.org/1999/xlink" version="1.1" x="0" y="0" viewBox="2.2 15.4 85.9 57.6" enable-background="new 0 0 90 90" xml:space="preserve" height="43.65577798854439" width="65.10471057666604" class="icon-icon-0" data-fill-palette-color="accent" id="SvgjsSvg1827"></svg></g></svg></g><g></g></svg></g></svg></g></svg></g></svg></g><defs><mask></mask></defs><mask><g id="SvgjsG1826"><svg viewBox="0 0 320 360" height="360" width="320"><g><svg></svg></g><g><svg viewBox="0 0 320 360" height="360" width="320"><g></g><g transform="matrix(1,0,0,1,64,140.93352095585405)"><svg viewBox="0 0 192 78.13295808829191" height="78.13295808829191" width="192"><g><svg viewBox="0 0 192 78.13295808829191" height="78.13295808829191" width="192"><g><svg viewBox="0 0 192 78.13295808829191" height="78.13295808829191" width="192"><g transform="matrix(1,0,0,1,0,46.54411728616138)"><svg viewBox="0 0 192 31.58884080213053" height="31.58884080213053" width="192"><g id="SvgjsG1825"><svg viewBox="0 0 192 31.58884080213053" height="31.58884080213053" width="192" id="SvgjsSvg1824"><g><svg viewBox="0 0 192 19.793449313457614" height="19.793449313457614" width="192"><g transform="matrix(1,0,0,1,0,0)"><svg width="192" viewBox="1.95 -34.08 438.08 45.161718691651004" height="19.793449313457614" data-palette-color="url(#9033fa86-92a7-42e3-841a-a5db1a108712)"></svg></g></svg></g><g transform="matrix(1,0,0,1,0,22.6817886110746)"><svg viewBox="0 0 192 8.907052191055927" height="8.907052191055927" width="192"><g transform="matrix(1,0,0,1,0,0)"><svg width="192" viewBox="1.9499999999999997 -33.5 732.9 34" height="8.907052191055927" data-palette-color="url(#2ac423a3-6c59-4f5d-bf6e-7172c8c2a699)"></svg></g></svg></g></svg></g></svg></g><g transform="matrix(1,0,0,1,63.44764471166698,0)"><svg viewBox="0 0 65.10471057666604 43.65577798854439" height="43.65577798854439" width="65.10471057666604"><g><svg xmlns="http://www.w3.org/2000/svg" xmlns:xlink="http://www.w3.org/1999/xlink" version="1.1" x="0" y="0" viewBox="2.2 15.4 85.9 57.6" enable-background="new 0 0 90 90" xml:space="preserve" height="43.65577798854439" width="65.10471057666604" class="icon-icon-0" data-fill-palette-color="accent" id="SvgjsSvg1823"></svg></g></svg></g><g></g></svg></g></svg></g></svg></g></svg></g><defs><mask></mask></defs></svg></g></mask></svg></g></mask><mask><g id="SvgjsG1822"><svg viewBox="0 0 320 360" height="360" width="320"><g><svg></svg></g><g><svg viewBox="0 0 320 360" height="360" width="320"><g></g><g transform="matrix(1,0,0,1,64,140.93352095585405)"><svg viewBox="0 0 192 78.13295808829191" height="78.13295808829191" width="192"><g><svg viewBox="0 0 192 78.13295808829191" height="78.13295808829191" width="192"><g><svg viewBox="0 0 192 78.13295808829191" height="78.13295808829191" width="192"><g transform="matrix(1,0,0,1,0,46.54411728616138)"><svg viewBox="0 0 192 31.58884080213053" height="31.58884080213053" width="192"><g id="SvgjsG1821"><svg viewBox="0 0 192 31.58884080213053" height="31.58884080213053" width="192" id="SvgjsSvg1820"><g><svg viewBox="0 0 192 19.793449313457614" height="19.793449313457614" width="192"><g transform="matrix(1,0,0,1,0,0)"><svg width="192" viewBox="1.95 -34.08 438.08 45.161718691651004" height="19.793449313457614" data-palette-color="url(#9033fa86-92a7-42e3-841a-a5db1a108712)"></svg></g></svg></g><g transform="matrix(1,0,0,1,0,22.6817886110746)"><svg viewBox="0 0 192 8.907052191055927" height="8.907052191055927" width="192"><g transform="matrix(1,0,0,1,0,0)"><svg width="192" viewBox="1.9499999999999997 -33.5 732.9 34" height="8.907052191055927" data-palette-color="url(#2ac423a3-6c59-4f5d-bf6e-7172c8c2a699)"></svg></g></svg></g></svg></g></svg></g><g transform="matrix(1,0,0,1,63.44764471166698,0)"><svg viewBox="0 0 65.10471057666604 43.65577798854439" height="43.65577798854439" width="65.10471057666604"><g><svg xmlns="http://www.w3.org/2000/svg" xmlns:xlink="http://www.w3.org/1999/xlink" version="1.1" x="0" y="0" viewBox="2.2 15.4 85.9 57.6" enable-background="new 0 0 90 90" xml:space="preserve" height="43.65577798854439" width="65.10471057666604" class="icon-icon-0" data-fill-palette-color="accent" id="SvgjsSvg1819"></svg></g></svg></g><g></g></svg></g></svg></g></svg></g></svg></g><defs><mask></mask></defs><mask><g id="SvgjsG1818"><svg viewBox="0 0 320 360" height="360" width="320"><g><svg></svg></g><g><svg viewBox="0 0 320 360" height="360" width="320"><g></g><g transform="matrix(1,0,0,1,64,140.93352095585405)"><svg viewBox="0 0 192 78.13295808829191" height="78.13295808829191" width="192"><g><svg viewBox="0 0 192 78.13295808829191" height="78.13295808829191" width="192"><g><svg viewBox="0 0 192 78.13295808829191" height="78.13295808829191" width="192"><g transform="matrix(1,0,0,1,0,46.54411728616138)"><svg viewBox="0 0 192 31.58884080213053" height="31.58884080213053" width="192"><g id="SvgjsG1817"><svg viewBox="0 0 192 31.58884080213053" height="31.58884080213053" width="192" id="SvgjsSvg1816"><g><svg viewBox="0 0 192 19.793449313457614" height="19.793449313457614" width="192"><g transform="matrix(1,0,0,1,0,0)"><svg width="192" viewBox="1.95 -34.08 438.08 45.161718691651004" height="19.793449313457614" data-palette-color="url(#9033fa86-92a7-42e3-841a-a5db1a108712)"></svg></g></svg></g><g transform="matrix(1,0,0,1,0,22.6817886110746)"><svg viewBox="0 0 192 8.907052191055927" height="8.907052191055927" width="192"><g transform="matrix(1,0,0,1,0,0)"><svg width="192" viewBox="1.9499999999999997 -33.5 732.9 34" height="8.907052191055927" data-palette-color="url(#2ac423a3-6c59-4f5d-bf6e-7172c8c2a699)"></svg></g></svg></g></svg></g></svg></g><g transform="matrix(1,0,0,1,63.44764471166698,0)"><svg viewBox="0 0 65.10471057666604 43.65577798854439" height="43.65577798854439" width="65.10471057666604"><g><svg xmlns="http://www.w3.org/2000/svg" xmlns:xlink="http://www.w3.org/1999/xlink" version="1.1" x="0" y="0" viewBox="2.2 15.4 85.9 57.6" enable-background="new 0 0 90 90" xml:space="preserve" height="43.65577798854439" width="65.10471057666604" class="icon-icon-0" data-fill-palette-color="accent" id="SvgjsSvg1815"></svg></g></svg></g><g></g></svg></g></svg></g></svg></g></svg></g><defs><mask></mask></defs></svg></g></mask><mask><g id="SvgjsG1814"><svg viewBox="0 0 320 360" height="360" width="320"><g><svg></svg></g><g><svg viewBox="0 0 320 360" height="360" width="320"><g></g><g transform="matrix(1,0,0,1,64,140.93352095585405)"><svg viewBox="0 0 192 78.13295808829191" height="78.13295808829191" width="192"><g><svg viewBox="0 0 192 78.13295808829191" height="78.13295808829191" width="192"><g><svg viewBox="0 0 192 78.13295808829191" height="78.13295808829191" width="192"><g transform="matrix(1,0,0,1,0,46.54411728616138)"><svg viewBox="0 0 192 31.58884080213053" height="31.58884080213053" width="192"><g id="SvgjsG1813"><svg viewBox="0 0 192 31.58884080213053" height="31.58884080213053" width="192" id="SvgjsSvg1812"><g><svg viewBox="0 0 192 19.793449313457614" height="19.793449313457614" width="192"><g transform="matrix(1,0,0,1,0,0)"><svg width="192" viewBox="1.95 -34.08 438.08 45.161718691651004" height="19.793449313457614" data-palette-color="url(#9033fa86-92a7-42e3-841a-a5db1a108712)"></svg></g></svg></g><g transform="matrix(1,0,0,1,0,22.6817886110746)"><svg viewBox="0 0 192 8.907052191055927" height="8.907052191055927" width="192"><g transform="matrix(1,0,0,1,0,0)"><svg width="192" viewBox="1.9499999999999997 -33.5 732.9 34" height="8.907052191055927" data-palette-color="url(#2ac423a3-6c59-4f5d-bf6e-7172c8c2a699)"></svg></g></svg></g></svg></g></svg></g><g transform="matrix(1,0,0,1,63.44764471166698,0)"><svg viewBox="0 0 65.10471057666604 43.65577798854439" height="43.65577798854439" width="65.10471057666604"><g><svg xmlns="http://www.w3.org/2000/svg" xmlns:xlink="http://www.w3.org/1999/xlink" version="1.1" x="0" y="0" viewBox="2.2 15.4 85.9 57.6" enable-background="new 0 0 90 90" xml:space="preserve" height="43.65577798854439" width="65.10471057666604" class="icon-icon-0" data-fill-palette-color="accent" id="SvgjsSvg1811"></svg></g></svg></g><g></g></svg></g></svg></g></svg></g></svg></g><defs><mask></mask></defs><mask><g id="SvgjsG1810"><svg viewBox="0 0 320 360" height="360" width="320"><g><svg></svg></g><g><svg viewBox="0 0 320 360" height="360" width="320"><g></g><g transform="matrix(1,0,0,1,64,140.93352095585405)"><svg viewBox="0 0 192 78.13295808829191" height="78.13295808829191" width="192"><g><svg viewBox="0 0 192 78.13295808829191" height="78.13295808829191" width="192"><g><svg viewBox="0 0 192 78.13295808829191" height="78.13295808829191" width="192"><g transform="matrix(1,0,0,1,0,46.54411728616138)"><svg viewBox="0 0 192 31.58884080213053" height="31.58884080213053" width="192"><g id="SvgjsG1809"><svg viewBox="0 0 192 31.58884080213053" height="31.58884080213053" width="192" id="SvgjsSvg1808"><g><svg viewBox="0 0 192 19.793449313457614" height="19.793449313457614" width="192"><g transform="matrix(1,0,0,1,0,0)"><svg width="192" viewBox="1.95 -34.08 438.08 45.161718691651004" height="19.793449313457614" data-palette-color="url(#9033fa86-92a7-42e3-841a-a5db1a108712)"></svg></g></svg></g><g transform="matrix(1,0,0,1,0,22.6817886110746)"><svg viewBox="0 0 192 8.907052191055927" height="8.907052191055927" width="192"><g transform="matrix(1,0,0,1,0,0)"><svg width="192" viewBox="1.9499999999999997 -33.5 732.9 34" height="8.907052191055927" data-palette-color="url(#2ac423a3-6c59-4f5d-bf6e-7172c8c2a699)"></svg></g></svg></g></svg></g></svg></g><g transform="matrix(1,0,0,1,63.44764471166698,0)"><svg viewBox="0 0 65.10471057666604 43.65577798854439" height="43.65577798854439" width="65.10471057666604"><g><svg xmlns="http://www.w3.org/2000/svg" xmlns:xlink="http://www.w3.org/1999/xlink" version="1.1" x="0" y="0" viewBox="2.2 15.4 85.9 57.6" enable-background="new 0 0 90 90" xml:space="preserve" height="43.65577798854439" width="65.10471057666604" class="icon-icon-0" data-fill-palette-color="accent" id="SvgjsSvg1807"></svg></g></svg></g><g></g></svg></g></svg></g></svg></g></svg></g><defs><mask></mask></defs></svg></g></mask></svg></g></mask></svg></g></mask></svg></g></mask><linearGradient x1="0.054" x2="0.941" y1="0.5" y2="0.5" id="7a255f6b-d0e8-4d28-ac62-1c4cd290b47d"><stop stop-color="#0f3054" offset="0"></stop><stop stop-color="#3b8dcb" offset="0.498"></stop><stop stop-color="#0f3054" offset="1"></stop></linearGradient></svg><rect width="320" height="360" fill="none" stroke="none" visibility="hidden"></rect></g></svg></g></svg>