<svg xmlns="http://www.w3.org/2000/svg" version="1.1" xmlns:xlink="http://www.w3.org/1999/xlink" xmlns:svgjs="http://svgjs.dev/svgjs" width="1500" height="1687" viewBox="0 0 1500 1687"><g transform="matrix(1,0,0,1,0.000011718749760802893,0)"><svg viewBox="0 0 320 360" data-background-color="#fcfbf4" preserveAspectRatio="xMidYMid meet" height="1687" width="1500" xmlns="http://www.w3.org/2000/svg" xmlns:xlink="http://www.w3.org/1999/xlink"><g id="tight-bounds" transform="matrix(1,0,0,1,0.0000025000000505315256,0)"><svg viewBox="0 0 320 360" height="360" width="320"><g><svg></svg></g><g><svg viewBox="0 0 320 360" height="360" width="320"><g><path transform="translate(-19.44751,3.1739) scale(3.53591,3.53591)" d="M67.6 10.7c0.2 0 1.8 0.8 2.7 1.1-0.3 0.1-1-0.2-1.8-0.5 0.2 0 0.6 0.1 1 0.3-0.2-0.2-1.7-0.7-1.9-0.9M52.7 7.6c0.3-0.1 3.8 0.4 5.4 0.5 0.1-0.1-0.2-0.1-0.6-0.2 0.5-0.1 1.5 0.2 2.2 0.3-2.1 0.1-4.4-0.5-6.4-0.3-0.7 0-0.2-0.2-0.6-0.3M49.8 7.6c1.8 0 3.2 0 0.6 0.2-0.3-0.1-0.7-0.1-0.6-0.2M78.1 15.9c0.2 0 1 0.9 1.4 1.2-0.1 0.1-0.9-0.7-1.3-1 0.1 0.1 0 0-0.1-0.2M76.1 14.6c-0.8-0.7-1.1-0.7-1.2-1.1 0.7 0.4 1.2 0.8 1.2 1.1M63.2 8.3c0.1-0.1 0.3 0.1 0.8 0.2-0.6-0.1-0.5 0-0.3 0.2-0.7-0.1-0.9-0.2-0.7-0.4 0.4 0.2 0.5 0.1 0.2 0M34.8 9.5c0-0.1 0.4-0.3 0.7-0.4-0.3 0.2-0.2 0.3 0.3 0.1 0 0.1-0.6 0.3-1 0.5 0.2-0.1 0.4-0.4 0-0.2M65.2 7.3c-0.3 0.1-1.4-0.5-2.5-0.7-0.6-0.2 2.4 0.5 2.5 0.7M6.2 56.7c0.6 2.5 0.2 2.4 0 0M6.3 41.7c0.1-0.4 0.2-1.5 0.3-1.4-0.3 2.4-0.8 3.5-0.9 5.3 0.3-1.6-0.1 0.9-0.2 1.5 0.1 0.8 0.1-0.5 0.3-0.3 0.2 0.3-0.4 4.5-0.2 2.2-0.2 2.1 0 4.4 0.4 5-0.5 3.2 2 10.4 2.5 11.9 0.1 0.1 0-0.5 0.2-0.1 0.2 1.3 1.1 2.2 1.4 3.6 0.3 0.4 1.5 2.6 1.7 3.1 0.4 0.8 0.6 0.7 1 1.5 1.2 2.3 3.1 4.5 4.9 6.6 5.8 6.8 14.7 12.4 24.6 14.4 9.9 2.1 20.3 0.6 28.4-3.3 0.5-0.3 0.4-0.4 1-0.6 2.8-0.9 6.2-3.8 8.1-4.9 0.9-1 3.3-2.7 3.6-3.7 1.7-1.4 3.4-3.7 4.3-5.2 0.5-0.8 0.9-0.8 1.1-1.3-0.1 0 1.6-2.1 2.1-3.3-0.2 0-0.5 0.6-0.5 0 3.6-6.9 5.6-16.2 4.5-22.6 0.2 7.9-1.8 16.7-5.6 22.3-1.7 3.6-5.2 7.5-8.4 10.3-0.5 0.5-1 1.1-1.6 1.5-1.9 1.6-4 2.9-6.2 4.1-5.2 2.9-11 5.4-17.8 5.5 11.7-1 22.2-6.9 28-14.1-4.4 4.3-6.3 6-11.2 8.5-0.4 0.7-3.7 2.1-5.9 2.7 1.3-0.6 4-1.6 4.9-2.4-7.3 3.5-15.4 5.5-23 4.4 2.9 0 7 0.1 10.9-0.6 0.6-0.2 0.9-0.4 1.6-0.5 7.6-1.7 14.9-5.4 20.1-10.6-3 2.7-7.5 5.9-10.4 6.9 2.7-1.5 7.6-4.4 9.2-6.6-3.2 3.2-9.2 6.4-13 7.8-0.6 0.1 0.4-0.4-0.6 0-1.2 0.3-0.7 0.3-1 0.5-4.6 1.3-9.9 2.4-14.3 2-0.8-0.1-1.1-0.3-1.8-0.3-0.8-0.1-1.5-0.1-2.4-0.1-3.5-0.4-7.3-1.8-10.1-3-1.5-0.7-3-1.2-4.5-2.1-1.2-0.7-2.2-1.5-3.2-2.3-3.8-2.8-7-5.6-10-9.6-5.4-7.5-8.2-16.9-7.8-26.2 0.4-9.3 4.1-18.4 10-25.1-0.3 0.3 0.4-0.7 1-1.3 0 0.2-0.1 0.5 0.6-0.2 0.6-0.7-0.2-0.2 0.1-0.6 6.2-6.8 17-12.3 28.1-12.5 0.4-0.3 1.1-0.7 1.9-0.5 0 0.1-0.5 0.1-0.5 0.1 1.1-0.1 2.1-0.1 2.6 0.1 0.1-0.1-0.4-0.2 0-0.2 0.7 0.2 0.9 0 1.3 0.2-0.3 0-0.6 0-0.8 0.1 2.5 0 4.1 0.6 6.6 0.8-1.3-0.3-1.6-0.3-2.6-0.6 1.1 0.2 1.6 0.4 2.1 0.3-0.2 0-0.1-0.3 0.1-0.2 2 0.5 2.2 0.7 4.3 1.4 0.2-0.2-0.9-0.3-1.2-0.6 2 0.7 3.8 1.2 5 2-0.4-0.3-1.6-0.7-2.5-1.1-0.1 0.1 0.3 0.2 0.4 0.4-1-0.5-2.4-1-3.8-1.2 1.2 0.3 2 0.7 2.5 0.9-1.1-0.2-2.5-0.9-4.1-1.2 2.6 0.8 7.5 2.6 10.5 4.2-1.1-0.7-2.4-1.2-3.1-1.6 0.6 0.1 1.3 0.5 1.3 0.3 0.7 0.3 1.6 1 2.1 1.1-0.9-0.6-2.7-1.5-3.3-1.8 7.5 3.4 14.2 9.1 18.5 16.4 0.4 0.7 1 2.3 1.5 2.5-0.1-0.5-0.5-0.8-0.9-1.6 0.2 0 0.2-0.3 0-0.6-0.4-0.5 0 0.4-0.4-0.1-1.8-3.3-4-6.2-7.4-9.4 1.9 1.8 0.5 0.5 0.1-0.1 2.6 2.3 5.6 6.2 6.9 8.2-0.2-0.3-0.3-0.5-0.2-0.5 2.4 4.1 3.9 7.8 5.4 13.1 0.1 0.1 0-0.4 0.2-0.1 1 4.2 1.3 7.7 1.2 10.9 0.8-5.4-1-13.8-4.2-20.4-0.4-0.8-0.4-0.2-0.8-1.1 0-0.3-0.3-0.9-0.5-1.3-4-6.6-8.9-11.3-14.7-15 0.4 0.2 1.2 0.8 1.2 0.7-10.8-7.1-23.3-8.1-33.6-5.9-0.7 0.3-1 0.6-1.8 1 1.5-0.5 2.4-0.6 3.8-0.9 0.3-0.3-1.3 0.1-0.6-0.2 0.1 0.1 1.4-0.2 1.7-0.1 0 0.1-0.4 0.2-0.5 0.3 3.3-0.7 6.7-0.8 9.6-0.6-1.7 0.1-4.8-0.2-5.8 0.3 1-0.1 2.4-0.2 3.3-0.1-1.2 0-3.4 0.1-4.4 0.2-0.1-0.1 1.6-0.3 0.5-0.3-0.5 0.1-1.3 0.1-1.6 0.4-8.6 0.8-17 5.3-22.9 10.6-1.2 1-2.6 2.1-3.5 3.2-2.2 2.5-3.6 5-5.2 7.2 1-2.1 3.2-5.3 5.8-8 2.6-2.7 5.4-5 6.9-6.2 0 0.4 2.4-1.5 3.3-2.1-0.6 0.5 0.4-0.2 0.6-0.1 3.2-1.9 5.8-2.6 8.7-3.7-0.7 0.2-1.3 0.4-1.4 0.3 0.7-0.2 1.1-0.4 1-0.5-2.8 0.8-7.2 2.7-10.7 4.8 6.3-4.3 14.3-6.9 22.2-7 7.9-0.2 15.6 1.8 21.7 5 4.1 1.8 8 5.1 11.1 8.3 0.9 0.8 0.2-0.2 1.5 1.2-0.4-0.2-0.7-0.4-0.2 0.2 0.8 0.9-0.2-0.7 1.1 0.9-0.1 0-0.5-0.5-0.5-0.3 3.5 3.1 6.2 8.7 7.8 12.4-0.4-1.5-1.4-3.6-2.2-5.1 2.4 4.4 3.2 7 4.2 10.9 0.4 0.3-0.2-1.4 0.2-0.6 0.1 0.6 0.2 2.5 0.6 2.8-0.3-1.9-0.8-4.2-1.2-4.6 0.3 0.2-0.5-2.3-1-2.9-0.2-1.6-1.6-4.4-2.8-6.5-4.3-8.4-12-15.3-20.6-19.1 0-0.2-0.5-0.4-0.7-0.6-8.5-3.6-18.7-4.6-28.5-2.3-9.9 2.4-19.2 8.1-25.8 16.3 0.3-1 2.8-2.9 2.9-3.7-2.9 3.1-6 7.2-8.1 11.6-2.2 4.4-3.4 8.9-3.9 12.2" fill="#426613" fill-rule="nonzero" stroke="none" stroke-width="1" stroke-linecap="butt" stroke-linejoin="miter" stroke-miterlimit="10" stroke-dasharray="" stroke-dashoffset="0" font-family="none" font-weight="none" font-size="none" text-anchor="none" style="mix-blend-mode: normal" data-fill-palette-color="tertiary"></path></g><g transform="matrix(1,0,0,1,48.000000000000014,124.8847038564307)"><svg viewBox="0 0 223.99999999999997 110.23059228713859" height="110.23059228713859" width="223.99999999999997"><g><svg viewBox="0 0 223.99999999999997 110.23059228713859" height="110.23059228713859" width="223.99999999999997"><g><svg viewBox="0 0 223.99999999999997 110.23059228713859" height="110.23059228713859" width="223.99999999999997"><g transform="matrix(1,0,0,1,0,66.62540784047857)"><svg viewBox="0 0 223.99999999999997 43.60518444666002" height="43.60518444666002" width="223.99999999999997"><g id="textblocktransform"><svg viewBox="0 0 223.99999999999997 43.60518444666002" height="43.60518444666002" width="223.99999999999997" id="textblock"><g><svg viewBox="0 0 223.99999999999997 43.60518444666002" height="43.60518444666002" width="223.99999999999997"><g transform="matrix(1,0,0,1,0,0)"><svg width="223.99999999999997" viewBox="3.75 -38.6 200.58 39.050000000000004" height="43.60518444666002" data-palette-color="#426613"><path d="M28.05-24.4Q28.05-21.75 26.8-19.4 25.55-17.05 22.8-15.58 20.05-14.1 15.75-14.1L15.75-14.1 9.45-14.1 9.45 0 3.75 0 3.75-34.75 15.75-34.75Q19.75-34.75 22.53-33.38 25.3-32 26.68-29.65 28.05-27.3 28.05-24.4L28.05-24.4ZM15.75-18.75Q19-18.75 20.6-20.23 22.2-21.7 22.2-24.4L22.2-24.4Q22.2-30.1 15.75-30.1L15.75-30.1 9.45-30.1 9.45-18.75 15.75-18.75ZM45.45 0.45Q41.55 0.45 38.4-1.33 35.25-3.1 33.45-6.33 31.65-9.55 31.65-13.8L31.65-13.8Q31.65-18 33.5-21.25 35.35-24.5 38.55-26.25 41.75-28 45.7-28L45.7-28Q49.65-28 52.85-26.25 56.05-24.5 57.9-21.25 59.75-18 59.75-13.8L59.75-13.8Q59.75-9.6 57.85-6.35 55.95-3.1 52.67-1.33 49.4 0.45 45.45 0.45L45.45 0.45ZM45.45-4.5Q47.65-4.5 49.57-5.55 51.5-6.6 52.7-8.7 53.9-10.8 53.9-13.8L53.9-13.8Q53.9-16.8 52.75-18.88 51.6-20.95 49.7-22 47.8-23.05 45.6-23.05L45.6-23.05Q43.4-23.05 41.52-22 39.65-20.95 38.55-18.88 37.45-16.8 37.45-13.8L37.45-13.8Q37.45-9.35 39.72-6.93 42-4.5 45.45-4.5L45.45-4.5ZM71.09-23.55Q72.34-25.65 74.42-26.83 76.5-28 79.34-28L79.34-28 79.34-22.1 77.9-22.1Q74.55-22.1 72.82-20.4 71.09-18.7 71.09-14.5L71.09-14.5 71.09 0 65.4 0 65.4-27.55 71.09-27.55 71.09-23.55ZM97.94-22.9L91.24-22.9 91.24-7.65Q91.24-6.1 91.97-5.43 92.69-4.75 94.44-4.75L94.44-4.75 97.94-4.75 97.94 0 93.44 0Q89.59 0 87.54-1.8 85.49-3.6 85.49-7.65L85.49-7.65 85.49-22.9 82.24-22.9 82.24-27.55 85.49-27.55 85.49-34.4 91.24-34.4 91.24-27.55 97.94-27.55 97.94-22.9ZM114.74-27.55L114.74-22.9 109.64-22.9 109.64 0 103.89 0 103.89-22.9 100.64-22.9 100.64-27.55 103.89-27.55 103.89-29.5Q103.89-34.25 106.41-36.43 108.94-38.6 114.34-38.6L114.34-38.6 114.34-33.85Q111.74-33.85 110.69-32.88 109.64-31.9 109.64-29.5L109.64-29.5 109.64-27.55 114.74-27.55ZM131.74 0.45Q127.84 0.45 124.69-1.33 121.54-3.1 119.74-6.33 117.94-9.55 117.94-13.8L117.94-13.8Q117.94-18 119.79-21.25 121.64-24.5 124.84-26.25 128.04-28 131.99-28L131.99-28Q135.94-28 139.14-26.25 142.34-24.5 144.19-21.25 146.04-18 146.04-13.8L146.04-13.8Q146.04-9.6 144.14-6.35 142.24-3.1 138.96-1.33 135.69 0.45 131.74 0.45L131.74 0.45ZM131.74-4.5Q133.94-4.5 135.86-5.55 137.79-6.6 138.99-8.7 140.19-10.8 140.19-13.8L140.19-13.8Q140.19-16.8 139.04-18.88 137.89-20.95 135.99-22 134.09-23.05 131.89-23.05L131.89-23.05Q129.69-23.05 127.81-22 125.94-20.95 124.84-18.88 123.74-16.8 123.74-13.8L123.74-13.8Q123.74-9.35 126.01-6.93 128.29-4.5 131.74-4.5L131.74-4.5ZM151.69-37L157.38-37 157.38 0 151.69 0 151.69-37ZM167.78-31.2Q166.23-31.2 165.18-32.25 164.13-33.3 164.13-34.85L164.13-34.85Q164.13-36.4 165.18-37.45 166.23-38.5 167.78-38.5L167.78-38.5Q169.28-38.5 170.33-37.45 171.38-36.4 171.38-34.85L171.38-34.85Q171.38-33.3 170.33-32.25 169.28-31.2 167.78-31.2L167.78-31.2ZM164.88-27.55L170.58-27.55 170.58 0 164.88 0 164.88-27.55ZM190.03 0.45Q186.13 0.45 182.98-1.33 179.83-3.1 178.03-6.33 176.23-9.55 176.23-13.8L176.23-13.8Q176.23-18 178.08-21.25 179.93-24.5 183.13-26.25 186.33-28 190.28-28L190.28-28Q194.23-28 197.43-26.25 200.63-24.5 202.48-21.25 204.33-18 204.33-13.8L204.33-13.8Q204.33-9.6 202.43-6.35 200.53-3.1 197.25-1.33 193.98 0.45 190.03 0.45L190.03 0.45ZM190.03-4.5Q192.23-4.5 194.15-5.55 196.08-6.6 197.28-8.7 198.48-10.8 198.48-13.8L198.48-13.8Q198.48-16.8 197.33-18.88 196.18-20.95 194.28-22 192.38-23.05 190.18-23.05L190.18-23.05Q187.98-23.05 186.1-22 184.23-20.95 183.13-18.88 182.03-16.8 182.03-13.8L182.03-13.8Q182.03-9.35 184.3-6.93 186.58-4.5 190.03-4.5L190.03-4.5Z" opacity="1" transform="matrix(1,0,0,1,0,0)" fill="#426613" class="wordmark-text-0" data-fill-palette-color="primary" id="text-0"></path></svg></g></svg></g></svg></g></svg></g><g transform="matrix(1,0,0,1,67.06478172427161,0)"><svg viewBox="0 0 89.87043655145675 60.26236490528415" height="60.26236490528415" width="89.87043655145675"><g><svg xmlns="http://www.w3.org/2000/svg" xmlns:xlink="http://www.w3.org/1999/xlink" version="1.1" x="0" y="0" viewBox="2.2 15.4 85.9 57.6" enable-background="new 0 0 90 90" xml:space="preserve" height="60.26236490528415" width="89.87043655145675" class="icon-icon-0" data-fill-palette-color="accent" id="icon-0"><g fill="#426613" data-fill-palette-color="accent"><path d="M6.6 25c0 1.4 1.1 2.5 2.5 2.5s2.5-1.1 2.5-2.5-1.1-2.5-2.5-2.5S6.6 23.6 6.6 25zM10.7 25c0 0.9-0.7 1.6-1.6 1.6-0.9 0-1.6-0.7-1.6-1.6 0-0.9 0.7-1.6 1.6-1.6C10 23.4 10.7 24.1 10.7 25z" fill="#426613" data-fill-palette-color="accent"></path><path d="M64.3 27.8H17.2v14.1h47.1V27.8zM63.4 41H18.1V28.7h45.3V41z" fill="#426613" data-fill-palette-color="accent"></path><path d="M17.2 53.3H30v-9.7H17.2V53.3zM18.1 44.5h10.9v7.9H18.1V44.5z" fill="#426613" data-fill-palette-color="accent"></path><rect x="32.9" y="44.2" width="31" height="0.9" fill="#426613" data-fill-palette-color="accent"></rect><rect x="32.9" y="46.6" width="31" height="0.9" fill="#426613" data-fill-palette-color="accent"></rect><rect x="32.9" y="49.1" width="31" height="0.9" fill="#426613" data-fill-palette-color="accent"></rect><rect x="32.9" y="51.6" width="18" height="0.9" fill="#426613" data-fill-palette-color="accent"></rect><rect x="27.8" y="70.5" width="26.1" height="2.5" fill="#426613" data-fill-palette-color="accent"></rect><path d="M4.1 20.5h73.5v10.9h1.8V20.5c0-2.8-2.3-5.1-5.1-5.1H7.3c-2.8 0-5.1 2.3-5.1 5.1v38c0 2.8 2.3 5.1 5.1 5.1h24.1L31 69.4h1.8l0.5-5.8h15.1l0.5 5.8h1.8l-0.5-5.8h15.9v-6H4.1V20.5z" fill="#426613" data-fill-palette-color="accent"></path><path d="M82.2 32.3h-9.2c-3.3 0-5.9 2.7-5.9 5.9v28.1c0 3.3 2.7 5.9 5.9 5.9h9.2c3.3 0 5.9-2.7 5.9-5.9V38.2C88.1 35 85.4 32.3 82.2 32.3zM68.2 64.8V38.6h18.7v26.2H68.2zM75.9 35.2h3.3c0.3 0 0.6 0.3 0.6 0.6s-0.3 0.6-0.6 0.6h-3.3c-0.3 0-0.6-0.3-0.6-0.6S75.5 35.2 75.9 35.2zM79.3 68c0 0.7-0.6 1.3-1.3 1.3h-0.7c-0.7 0-1.3-0.6-1.3-1.3V68c0-0.7 0.6-1.3 1.3-1.3h0.7C78.6 66.6 79.3 67.2 79.3 68L79.3 68z" fill="#426613" data-fill-palette-color="accent"></path><path d="M68.9 49.9h17.2v-6.7H68.9V49.9zM69.7 44h15.5v5H69.7V44z" fill="#426613" data-fill-palette-color="accent"></path><path d="M77.2 50.3h-8.4V57h8.4V50.3zM76.4 56.2h-6.6v-5h6.6V56.2z" fill="#426613" data-fill-palette-color="accent"></path><path d="M77.7 57h8.4v-6.7h-8.4V57zM78.6 51.2h6.6v5h-6.6V51.2z" fill="#426613" data-fill-palette-color="accent"></path><path d="M77.4 42.6c1 0 1.8-0.8 1.8-1.8S78.3 39 77.4 39s-1.8 0.8-1.8 1.8S76.4 42.6 77.4 42.6zM77.4 39.9c0.5 0 0.9 0.4 0.9 0.9s-0.4 0.9-0.9 0.9-0.9-0.4-0.9-0.9S76.8 39.9 77.4 39.9z" fill="#426613" data-fill-palette-color="accent"></path><rect x="68.9" y="57.9" width="17.2" height="0.9" fill="#426613" data-fill-palette-color="accent"></rect><rect x="68.9" y="59.6" width="17.2" height="0.9" fill="#426613" data-fill-palette-color="accent"></rect><rect x="68.9" y="61.2" width="17.2" height="0.9" fill="#426613" data-fill-palette-color="accent"></rect><rect x="68.9" y="62.8" width="10.1" height="0.9" fill="#426613" data-fill-palette-color="accent"></rect></g></svg></g></svg></g><g></g></svg></g></svg></g></svg></g></svg></g><defs></defs></svg><rect width="320" height="360" fill="none" stroke="none" visibility="hidden"></rect></g></svg></g></svg>